<?xml version="1.0" encoding="utf-8"?>
<!-- Generator: Adobe Illustrator 16.0.0, SVG Export Plug-In . SVG Version: 6.00 Build 0)  -->
<!DOCTYPE svg PUBLIC "-//W3C//DTD SVG 1.0//EN" "http://www.w3.org/TR/2001/REC-SVG-20010904/DTD/svg10.dtd">
<svg version="1.0" id="Layer_1" xmlns="http://www.w3.org/2000/svg" xmlns:xlink="http://www.w3.org/1999/xlink" x="0px" y="0px"
	 width="944px" height="1200px" viewBox="0 0 944 1200" enable-background="new 0 0 944 1200" xml:space="preserve">
<path fill-rule="evenodd" clip-rule="evenodd" fill="#050404" d="M11.827,1111.489c1.635-3.11,4.815-4.293,7.632-5.727
	c14.166-7.21,28.395-14.266,41.764-22.949c11.523-7.485,21.68-16.599,31.859-25.713c0.886-0.793,1.919-1.771,1.162-3.019
	c-0.765-1.26-1.884-0.184-2.818,0.061c-20.12,5.266-38.732,2.372-55.464-10.362c-4.282-3.259-7.823-7.309-9.701-12.393
	c-3.708-10.047,2.384-19.632,13.352-21.849c8.237-1.666,16.189-0.458,24.094,1.678c2.456,0.664,3.883,1.493,3.026-2.486
	c-2.291-10.64-0.231-20.826,4.656-30.444c0.797-1.568,1.229-3.005,0.891-4.71c-2.348-11.818-3.708-23.778-4.84-35.757
	c-0.555-5.867-0.816-11.781-0.845-17.675c-0.032-6.504-0.524-12.732-2.752-19.046c-4.701-13.318-7.023-27.222-8.888-41.241
	c-2.07-15.565-3.765-31.121-3.577-46.834c0.179-14.938,2.507-29.507,8.149-43.413c2.679-6.602,6.287-12.65,11.879-17.279
	c6.748-5.586,15.502-4.4,20.743,2.65c5.011,6.74,7.251,14.706,10.185,22.373c0.367,0.957,0.289,2.48,1.421,2.628
	c1.363,0.178,1.707-1.396,2.293-2.36c2.694-4.43,5.242-8.952,8.061-13.3c1.306-2.014,1.46-2.95-0.752-4.698
	c-24.08-19.031-44.81-41.022-58.994-68.565c-7.554-14.669-12.359-30.236-14.265-46.654c-3.688-31.769,0.57-62.44,12.876-91.964
	c2.726-6.54,6.831-12.287,10.617-18.245c4.394-6.912,9.153-13.378,15.216-18.904c15.364-14.006,33.269-21.125,54.058-18.25
	c24.983,3.454,42.567,17.566,53.427,40.125c6.042,12.55,8.793,25.958,9.899,39.796c1.875,23.458,1.419,46.954,1.458,70.442
	c0.012,7.563,0.723,15.066,1.319,22.589c0.207,2.601,1.08,2.284,2.807,1.445c15.703-7.627,32.473-11.563,49.594-14.285
	c12.597-2.003,25.246-3.193,38.021-2.72c1.226,0.046,3.162,0.805,3.061-1.637c-0.074-1.808,0.932-3.813-2.035-4.854
	c-10.368-3.639-18.542-10.113-23.979-19.811c-1.858-3.315-3.279-6.804-3.868-10.569c-0.362-2.313-1.324-3.323-3.903-3.366
	c-5.663-0.097-11.326-0.549-16.976-1.01c-5.296-0.433-9.356-3.989-9.978-8.483c-0.829-5.998,3.815-11.279,10.282-11.171
	c6.25,0.105,12.503,0.583,18.731,1.153c2.675,0.245,4.115-0.408,5.527-2.901c8.733-15.418,22.435-22.903,39.846-23.046
	c17.509-0.144,31.384,7.14,40.593,22.417c2.149,3.565,3.563,7.466,4.059,11.58c0.329,2.736,1.523,3.784,4.221,3.986
	c4.229,0.319,8.446,0.897,12.638,1.559c6.113,0.962,10.07,5.898,9.241,11.296c-0.768,4.998-6.208,8.765-11.939,8.164
	c-4.695-0.492-9.375-1.128-14.066-1.65c-1.487-0.166-2.798-0.408-3.836,1.475c-7.013,12.707-18.056,19.906-32.135,22.417
	c-3.011,0.537-2.403,2.123-2.491,3.928c-0.095,1.938,0.096,2.97,2.618,3.482c13.023,2.649,26.343,4.035,38.984,8.357
	c8.343,2.854,16.594,6.015,24.729,9.415c2.746,1.147,4.336,0.438,6.121-1.358c9.355-9.42,17.263-19.946,23.867-31.438
	c9.859-17.152,18.237-35.022,25.991-53.222c7.151-16.781,14.629-33.412,25.657-48.186c14.11-18.901,32.2-31.913,55.256-37.27
	c11.432-2.656,23.125-2.455,34.777-0.554c14.523,2.369,27.272,8.468,38.548,17.776c9.326,7.698,16.128,17.332,21.478,28.112
	c11.212,22.594,15.571,46.594,13.736,71.558c-1.767,24.024-9.388,46.199-23.562,65.942c-15.802,22.011-36.892,37.832-59.967,51.276
	c-22.36,13.028-46.306,22.42-70.951,30.101c-2.432,0.758-2.858,1.517-1.587,3.91c2.643,4.98,4.968,10.142,7.202,15.323
	c1.044,2.423,1.816,2.988,4.236,1.23c7.914-5.749,16.088-11.154,25.263-14.73c6.499-2.533,13.181-4.219,20.297-3.056
	c12.308,2.013,19.405,9.595,22.952,21.114c2.859,9.285,2.076,18.609,0.58,27.99c-2.35,14.732-8.155,28.115-15.634,40.872
	c-0.105,0.181-0.043,0.457-0.059,0.687c0.5,0.557,1.095,0.348,1.619,0.126c22.912-9.691,42.848-23.592,59.63-42.004
	c14.161-15.536,27.674-31.557,38.413-49.734c12.337-20.886,20.621-43.271,25.215-67.077c3.934-20.393,4.906-40.968,3.389-61.604
	c-2.049-27.87-8.292-54.828-19.159-80.648c-5.677-13.486-10.595-27.277-12.866-41.746c-2.638-16.796,0.322-32.868,8.417-47.908
	c1.34-2.488,2.551-5.063,4.092-7.421c1.372-2.101,0.826-2.604-1.436-3.173c-4.477-1.126-8.504-3.289-13.597-2.438
	c-9.107,1.522-21.597-8.7-22.804-17.863c-1.139-8.632,1.446-16.268,6.259-23.257c5.354-7.773,12.347-13.931,19.935-19.408
	c2.145-1.549,2.015-2.162-0.103-3.588c-27.138-18.281-48.187-42.028-63.543-70.902c-10.824-20.352-17.767-42.024-21.149-64.711
	c-4.196-28.146-2.762-56.138,4.347-83.785c10.96-42.623,32.731-78.759,65.636-107.899c25.819-22.864,55.594-38.446,89.512-45.698
	c24.592-5.258,49.206-6.011,74.065-1.613c45.153,7.99,82.155,29.994,111.599,64.725c22.023,25.978,35.896,56.036,42.637,89.46
	c4.022,19.944,5.227,40.041,3.314,60.204c-3.948,41.643-18.538,79.311-44.172,112.444c-21.219,27.427-47.68,48.484-79.418,62.563
	c-30.288,13.436-62.074,18.823-95.148,16.209c-4.225-0.333-8.438-0.965-12.613-1.705c-2.185-0.387-2.771-0.205-2.035,2.172
	c2.091,6.763,3.706,13.647,3.981,20.765c0.307,7.927-0.748,15.553-5.788,22.049c-5.864,7.559-13.703,9.004-24.139,4.599
	c-5.631-2.378-11.266-4.752-16.847-7.245c-1.417-0.633-2.306-0.946-2.987,0.862c-3.352,8.899-7.971,17.324-9.951,26.735
	c-1.846,8.773-1.93,17.567-0.072,26.333c3.384,15.972,10.117,30.787,15.862,45.955c6.93,18.293,11.215,37.276,14.048,56.62
	c2.125,14.515,3.017,29.099,2.641,43.734c-1.373,53.336-18.351,101.018-52.035,142.587c-14.063,17.354-28.876,33.924-46.762,47.566
	c-11.049,8.428-23.198,14.75-35.675,20.632c-7.666,3.614-15.187,7.538-22.742,11.384c-2.457,1.25-5.056,1.961-7.73,2.46
	c-6.535,1.219-9.086,3.991-8.671,10.471c0.861,13.464,0.428,26.943-0.258,40.351c-1.094,21.385-3.021,42.711-9.97,63.277
	c-3.261,9.651-5.837,19.535-9.978,28.881c-0.46,1.039-0.818,2.084-0.213,3.032c1.701,2.666,3.104,5.722,5.385,7.78
	c9.617,8.685,14.169,20.112,17.775,32.007c3.784,12.483,4.264,25.22,1.358,37.979c-3.084,13.538-7.489,26.535-17.089,37.042
	c-5.488,6.007-12.219,10.07-20.539,10.464c-8.9,0.422-15.766-3.942-21.591-10.22c-7.418-7.995-12.961-17.3-18.409-26.66
	c-3.311-5.688-6.25-11.615-11.198-16.183c-1.268-1.171-2.208-1.561-3.9-0.5c-21.903,13.723-46.045,21.62-71.034,27.454
	c-16.074,3.753-32.284,6.716-48.685,8.182c-18.469,1.651-37.018,1.404-55.553,0.462c-7.786-0.395-15.478-1.208-23.071-2.949
	c-1.332-0.306-2.116,0.099-2.867,1.327c-14.377,23.51-34.778,39.669-60.67,48.739c-8.983,3.146-18.431,3.815-27.902,1.67
	c-11.201-2.537-18.259-13.891-16.186-25.762c1.889-10.816,7.342-20.22,11.602-30.092c4.327-10.029,8.805-19.988,12.267-30.369
	c0.46-1.379,0.783-2.398-0.55-3.394c-5.031-3.754-9.451-8.172-13.767-12.706c-4.298-4.516-8.444-9.163-12.793-14.76
	c-0.766,3.928-1.318,7.169-2.035,10.374c-5.469,24.463-13.917,47.625-29.788,67.491c-5.014,6.275-10.325,12.273-17.268,16.558
	c-2.962,1.828-6.067,3.057-9.644,2.758c-4.333-0.362-6.354-3.831-4.46-7.75c1.036-2.144,2.706-3.813,4.35-5.45
	c20.25-20.167,32.711-44.595,39.547-72.107c0.279-1.125,0.321-2.309,0.479-3.509c-1.735-0.551-2.374,0.826-3.28,1.571
	c-19.357,15.939-40.958,28.013-64.229,37.172c-3.04,1.196-6.287,2.354-9.383-0.106C12.301,1118.845,12.064,1115.167,11.827,1111.489
	z M597.521,113.467c-1.724,0.23-1.94,1.535-2.07,2.902l0.023-0.028c-4.183,2.656-5.684,6.991-7.116,11.368l0.027-0.049
	c-0.228,0.37-0.454,0.74-0.681,1.108l0.031,0.182l-0.155,0.099c-1.644,0.187-1.388,1.37-1.294,2.468l0.036,0.228l-0.186,0.137
	c-3.685,0.792-4.388,2.1-3.315,6.168c-0.118,0.307-0.236,0.613-0.354,0.921c-2.371,1.551-3.129,3.915-3.309,6.57
	c-1.316,3.134-2.76,6.222-3.927,9.411c-7.823,21.388-12.734,43.327-13.315,66.218c-0.7,27.554,3.823,54.144,14.887,79.34
	c21.578,49.138,57.613,82.664,109.183,98.683c26.547,8.247,53.687,9.116,80.838,3.926c29.344-5.609,55.697-18.167,79.021-36.89
	c6.318-5.072,12.67-10.164,17.605-16.718c3.789-2.183,6.228-5.6,8.426-9.234c0.913-1.08,1.826-2.158,2.739-3.237
	c0.28-0.206,0.623-0.363,0.834-0.625c23.479-29.292,37.182-62.782,41.601-99.888c2.507-21.054,1.616-42.156-3.118-62.995
	c-9.367-41.23-29.854-75.642-62.916-102.171c-23.194-18.61-49.671-29.938-79.113-34.627c-20.321-3.236-40.493-2.634-60.495,1.476
	c-27.449,5.64-52.325,17.182-74.483,34.437c-1.195,0.93-2.366,1.935-4.041,1.798c-0.211,0.227-0.422,0.455-0.632,0.682l-0.008,0.038
	c-3.108-0.227-4.534,1.184-4.197,4.312l0.013-0.009c-1.398-0.333-2.179,0.629-2.999,1.463c-1.796,1.824-3.658,4.295-5.589,5.129
	c-4.94,2.133-6.067,6.653-8.421,10.468l0.027-0.03c-0.702-0.036-1.328,0.082-2.014,0.375c-3.053,1.309-4.482,4.055-5.468,6.812
	c-0.76,2.123-4.207,2.684-3.091,5.689l0.044-0.067c-1.904,0.729-3.428,1.735-3.016,4.147L597.521,113.467z M59.361,601.386
	c-0.08,0.076-0.232,0.162-0.225,0.228c0.023,0.196,0.109,0.386,0.17,0.577c-0.764,3.466-0.469,6.959-0.268,10.45
	c-1.095,15.437,2.104,30.299,6.026,45.064l-0.081,0.175l0.137,0.135c0.495,3.088,0.966,6.181,2.188,9.093
	c0.203,0.624,0.405,1.249,0.607,1.872l-0.059-0.116l0.042,0.068c9.814,32.399,28.006,58.138,59.357,74.166
	c-1.341-4.197-1.058-8.202-1.472-12.163c-1.521-14.546,0.493-28.72,4.998-42.544c4.197-12.878,12.278-23.571,19.852-34.554
	c9.333-13.533,20.534-25.855,25.797-42.008c2.062-6.329,3.825-12.506,4.196-19.168c0.468-8.422-0.209-16.755-1.611-25.001
	c-2.977-17.514-9.086-33.456-23.857-44.742c-11.697-8.938-25.014-12.474-39.287-9.749c-18.497,3.533-30.724,15.848-39.358,31.819
	c-4.924,9.108-8.852,18.749-12.204,28.583c-2.607,5.124-3.073,10.732-3.695,16.305c-0.57,1.175-0.364,2.434-0.396,3.666
	c-1.095,2.454-0.667,5.069-0.809,7.624L59.361,601.386z M640.029,409.323c-0.962,0.659-2,1.232-2.875,1.993
	c-5.306,4.617-10.979,8.907-14.152,15.477c-0.407,0.554-0.957,1.053-1.199,1.671c-3.934,10.053-2.598,10.25,5.701,12.82
	c4.119,1.275,8.331,2.063,12.234,4.292c5.998,3.427,12.432,5.875,19.51,2.646c0.646-0.295,1.647-0.073,2.399,0.168
	c3.601,1.157,7.129,2.439,9.768,5.399c1.188,1.334,2.747,2.622,4.523,2.525c3.638-0.197,6.991,0.702,10.294,1.937
	c1.803,0.674,2.52-0.187,3.292-1.585c1.807-3.27,1.768-6.802,1.623-10.337c-0.354-8.654-3.09-16.907-4.37-25.406
	c-0.239-1.585-1.302-2.092-2.644-2.422c-4.374-1.08-8.374-3.068-12.461-4.914c-5.357-2.421-10.45-5.429-16.082-7.255
	C649.827,404.464,644.345,403.78,640.029,409.323z M469.868,1004.598c-0.226,0.047-0.505,0.023-0.669,0.15
	c-26.577,20.537-56.924,33.763-88.378,44.412c-39.518,13.379-80.238,21.452-121.821,25.239c-17.135,1.561-34.212,1.263-51.261-0.468
	c-22.104-2.243-43.676-7.182-64.826-13.953c-6.569-2.103-13.089-4.357-19.89-6.629c0.233,0.667,0.305,1.001,0.46,1.291
	c0.389,0.729,0.775,1.465,1.232,2.151c15.657,23.517,35.78,41.712,62.064,52.818c15.548,6.569,31.655,11.07,48.394,12.377
	c27.95,2.181,55.883,2.062,83.649-2.982c22.541-4.096,44.812-9.057,65.948-18.133c16.39-7.037,31.554-16.102,44.168-28.876
	c18.901-19.142,31.092-42.502,41.414-66.985c0.029-0.283,0.176-0.744,0.065-0.818
	C470.047,1003.945,469.921,1004.272,469.868,1004.598z M483.423,923.188c-0.493-14.998-1.083-29.977-3.841-44.735
	c-2.656-14.214-5.565-28.389-9.381-42.353c-1.928-7.059-5.386-13.522-7.931-20.351c-7.218-19.367-16.397-37.816-26.893-55.638
	c-9.843-16.715-21.827-31.635-36.583-44.194c-11.047-9.402-22.615-18.149-36.584-22.967c-6.68-2.304-13.354-4.636-20.092-6.757
	c-24.066-7.575-48.746-9.86-73.782-7.589c-26.617,2.415-50.196,13.926-72.647,27.152c-25.465,15-43.879,37.827-60.885,61.448
	c-18.34,25.475-30.98,53.927-40.182,83.875c-3.879,12.624-6.877,25.492-7.731,38.736c-1.265,19.626-0.131,39.171,2.2,58.672
	c0.363,3.041,0.767,5.586,4.906,4.556c1.062-0.265,2.378,0.051,3.47,0.42c7.132,2.407,13.706,6.078,20.505,9.238
	c0.736,0.342,1.38,0.91,2.017,1.434c9.036,7.428,12.342,17.264,11.817,28.607c-0.662,14.298-5.334,27.505-11.688,40.12
	c-1.64,3.257-0.699,4.007,2.109,5.118c11.288,4.472,22.73,8.464,34.408,11.776c27.722,7.865,55.883,12.44,84.811,11.755
	c23.434-0.557,46.478-4.021,69.423-8.485c29.161-5.674,57.816-13.042,85.429-24.223c17.089-6.92,33.628-14.911,49.459-24.322
	c11.743-6.98,21.901-15.855,30.683-26.389c2.39-2.866,4.116-5.494,4.194-9.316c0.096-4.712,0.708-9.411,0.992-14.122
	C482.259,944.169,482.828,933.678,483.423,923.188z M606.102,607.563c-0.507-12.389-2.537-27.288-8.206-41.487
	c-4.453-11.152-10.097-21.578-19.244-29.682c-13.101-11.607-28.541-16.418-45.913-16.048c-18.649,0.396-34.284,7.577-47.594,20.29
	c-13.241,12.647-21.375,28.592-28.832,44.963c-0.421,0.925-0.728,1.782-0.09,2.653c2.978,4.062,2.601,8.688,2.187,13.279
	c-1.364,15.141-0.673,30.197,1.982,45.143c3.024,17.015,4.583,34.127,3.922,51.407c-0.482,12.575-3.22,24.737-9.913,35.388
	c-3.931,6.254-4.106,10.927,0.723,16.437c1.726,1.968,2.843,2.515,5.201,1.729c8.715-2.901,17.412-5.834,26.04-9.004
	c28.685-10.537,55.363-24.518,78.666-44.548C591.907,674.98,605.654,645.77,606.102,607.563z M476.941,1051.381
	c-3.114,4.414-5.533,9.024-9.03,12.571c-9.946,10.086-18.042,21.745-27.831,31.933c-1.392,1.447-1.101,2.42-0.168,3.911
	c3.053,4.889,5.901,9.905,8.902,14.827c4.961,8.137,9.57,16.523,16.142,23.554c4.904,5.245,8.707,5.258,13.729,0.117
	c5.161-5.282,7.988-11.871,10.207-18.725c2.804-8.663,4.867-17.484,3.928-26.713
	C491.281,1077.736,484.663,1064.546,476.941,1051.381z M439.779,723.569c2.584-4.82,4.402-9.392,5.358-14.22
	c3.333-16.837,0.849-33.594-1.086-50.323c-0.944-8.171-2.954-16.2-3.418-24.454c-0.196-3.486-0.686-6.955-1.129-11.277
	c-6.167,12.935-12.719,24.471-19.942,35.644c-5.261,8.138-11.497,15.513-17.481,23.086c-1.543,1.952-1.796,3.018,0.705,4.453
	c4.711,2.704,8.907,6.183,12.741,10.044C423.97,705.027,433.404,712.628,439.779,723.569z M501.938,866.739
	c0.595-0.252,0.868-0.282,0.996-0.436c1.663-1.992,3.331-3.981,4.946-6.013c9.695-12.195,17.891-25.206,21.343-40.653
	c1.835-8.212,2.134-16.417-2.09-24.12c-2.251-4.105-5.534-5.44-10.023-4.753c-11.799,1.807-21.613,7.636-30.867,14.776
	c-1.966,1.517-2.37,2.772-1.373,4.999C492.902,828.481,497.841,847.378,501.938,866.739z M137.854,1174.691
	c6.331-0.088,12.359-1.553,18.15-4.04c13.102-5.626,23.896-14.488,33.934-24.371c2.425-2.388,4.602-5.032,6.828-7.614
	c0.743-0.862,1.276-1.733-0.581-2.181c-15.289-3.684-29.208-10.456-42.304-19.021c-1.553-1.015-2.195-1.161-2.922,0.918
	c-1.826,5.219-3.991,10.319-6.001,15.475c-4.227,10.842-9.919,21.066-13.661,32.107
	C128.879,1173.104,130.221,1174.784,137.854,1174.691z M279.591,609.532c-0.056,4.269,1.142,8.141,3.528,11.643
	c9.537,13.994,32.057,15.749,44.138,3.447c9.443-9.616,8.363-23.912-2.421-32.018c-10.294-7.737-24.012-8.277-34.734-1.217
	C283.618,595.656,279.821,601.593,279.591,609.532z M181.411,641.243c-4.474,6.2-8.608,11.761-12.562,17.447
	c-7.645,10.993-16.265,21.399-20.986,34.188c-3.327,9.013-4.282,18.355-4.205,28.559c0.854-0.803,1.205-1.067,1.475-1.396
	c11.331-13.807,24.001-26.245,38.124-37.178c1.685-1.304,1.59-2.742,1.148-4.355c-1.063-3.883-1.507-7.844-1.707-11.846
	C182.287,658.452,181.867,650.242,181.411,641.243z M72.787,856.12c0.706-0.878,0.927-1.034,0.981-1.237
	c4.494-16.757,10.5-32.973,17.506-48.828c0.618-1.397,0.586-2.618,0.083-4.052c-2.961-8.436-5.759-16.93-8.779-25.344
	c-0.719-2.002-1.063-4.293-3.014-6.148c-4.854,8.295-6.885,17.182-8.365,26.248c-1.971,12.073-1.79,24.199-0.761,36.327
	C71.073,840.566,71.953,848.027,72.787,856.12z M107.538,1020.43c0.747-1.824,1.257-2.958,1.681-4.123
	c3.513-9.649,6.725-19.369,5.598-29.878c-0.802-7.473-6.414-12.456-13.446-12.217c-2.643,0.091-3.848,0.887-3.37,3.84
	c1.538,9.517,2.743,19.087,5.221,28.434C104.41,1010.964,105.46,1015.479,107.538,1020.43z M87.216,1038.961
	c-3.526-2.109-6.542-4.679-9.45-7.433c-3.148-2.981-7.693-2.566-11.518-3.995c-5.509-2.058-11.293-3.324-17.216-3.494
	c-2.873-0.083-6.925-0.871-8.057,1.755c-0.844,1.96,2.561,4.354,4.699,6.025c10.806,8.442,23.236,10.263,36.413,8.705
	C83.708,1040.333,85.656,1040.651,87.216,1038.961z"/>
<path fill-rule="evenodd" clip-rule="evenodd" fill="#0B0806" d="M11.827,1111.489c0.237,3.678,0.474,7.355,0.711,11.033
	C8.474,1119.585,8.233,1115.846,11.827,1111.489z"/>
<path fill-rule="evenodd" clip-rule="evenodd" fill="#FDFCFC" d="M483.423,923.188c-0.596,10.489-1.165,20.98-1.799,31.468
	c-0.285,4.711-0.896,9.41-0.992,14.122c-0.078,3.822-1.804,6.45-4.194,9.316c-8.782,10.533-18.94,19.408-30.683,26.389
	c-15.831,9.411-32.37,17.402-49.459,24.322c-27.613,11.181-56.268,18.549-85.429,24.223c-22.945,4.465-45.989,7.929-69.423,8.485
	c-28.928,0.686-57.089-3.89-84.811-11.755c-11.678-3.313-23.121-7.305-34.408-11.776c-2.808-1.111-3.749-1.861-2.109-5.118
	c6.354-12.615,11.026-25.822,11.688-40.12c0.525-11.344-2.781-21.18-11.817-28.607c-0.637-0.523-1.281-1.092-2.017-1.434
	c-6.799-3.16-13.373-6.831-20.505-9.238c-1.092-0.369-2.408-0.685-3.47-0.42c-4.14,1.03-4.543-1.515-4.906-4.556
	c-2.331-19.501-3.465-39.046-2.2-58.672c0.854-13.244,3.852-26.112,7.731-38.736c9.202-29.948,21.842-58.4,40.182-83.875
	c17.006-23.621,35.42-46.448,60.885-61.448c22.451-13.227,46.03-24.737,72.647-27.152c25.036-2.271,49.715,0.014,73.782,7.589
	c6.739,2.121,13.413,4.453,20.092,6.757c13.969,4.817,25.537,13.564,36.584,22.967c14.756,12.56,26.74,27.479,36.583,44.194
	c10.496,17.821,19.675,36.271,26.893,55.638c2.545,6.828,6.003,13.292,7.931,20.351c3.816,13.964,6.726,28.139,9.381,42.353
	C482.34,893.212,482.93,908.19,483.423,923.188z M397.35,939.473c0.365-1.59,1.688-1.309,2.821-1.495
	c17.887-2.943,30.882-12.962,38.001-29.214c7.381-16.853,5.722-33.734-5.259-48.895c-9.858-13.61-23.359-20.577-40.392-20.634
	c-5.626-0.019-10.955,1.146-16.339,2.351c0.078-1.057-0.014-2.159,0.257-3.163c3.296-12.201,0.503-23.327-7.083-32.924
	c-12.541-15.86-32.364-13.747-41.526,4.063c-3.458,6.723-4.187,13.998-3.357,21.38c1.356,12.063,9.065,27.878,26.466,30.263
	c-4.567,7.834-7.602,16.206-7.917,25.311c-0.589,17.062,6.044,30.83,19.261,41.638c1.709,1.397,4.627,1.601,5.092,4.443
	c-7.328,2.582-13.984,6.36-19.395,11.941c-2.129,2.195-3.406,1.865-5.457,0.153c-6.354-5.306-13.56-8.737-21.823-10.188
	c-13.727-2.408-26.067,4.391-29.906,17.034c-2.17,7.148-1.86,14.426-0.682,21.728c2.195,13.596,9.321,24.492,18.511,34.303
	c9.156,9.775,19.005,18.409,32.926,20.555c0.523,0.081,1.034,0.519,1.464,0.889c3.399,2.921,7.182,2.585,10.989,1.174
	c3.216-1.191,6.15-2.958,8.874-5.057c6.263-4.826,12.216-10.018,17.875-15.529c9.897-9.637,18.372-20.257,22.632-33.698
	C407.559,962.728,407.078,950.338,397.35,939.473z M186.73,858.077c10.172,9.061,25.633,7.805,33.727-3.068
	c9.787-13.148,9.397-27.221,2.422-41.335c-3.611-7.308-9.405-12.632-17.499-14.914c-12.094-3.41-24.42,4.089-28.978,17.526
	c-3.734,11.01-2.442,21.608,2.539,31.918c-1.023-0.304-1.889-0.845-2.777-1.458c-3.57-2.469-6.951-5.523-10.908-7.055
	c-8.814-3.411-17.915-5.377-27.628-3.938c-12.674,1.876-23.023,7.645-31.168,17.291c-6.183,7.321-9.975,15.735-11.221,25.461
	c-2.223,17.349,3.422,31.687,15.842,43.448c6.591,6.243,14.593,10.154,23.672,11.746c16.508,2.892,31.431-0.663,43.467-12.331
	c14.067-13.637,19.112-30.338,14.03-49.712C190.99,866.85,188.316,862.703,186.73,858.077z M295.37,894.689
	c6.597-0.454,14.145-1.032,20.267-6.309c4.934-4.252,7.4-9.69,7.26-16.19c-0.071-3.29-2.379-5.934-5.231-6.249
	c-3.395-0.376-5.256,1.546-6.236,4.549c-0.254,0.777-0.403,1.596-0.544,2.404c-0.785,4.494-3.217,7.351-7.77,8.537
	c-10.539,2.745-19.729,0.514-27.536-7.107c-2.85-2.783-4.543-2.828-8.054-0.696c-2.621,1.591-5.08,3.389-7.628,5.067
	c-2.201,1.449-4.583,1.904-7.384,1.393c-5.009-0.915-7.88-4.352-10.871-7.885c-2.097-2.477-4.793-3.442-7.924-2.007
	c-2.767,1.268-3.978,4.339-3.233,7.838c0.322,1.513,0.898,2.906,1.725,4.231c8.139,13.056,25.271,16.264,37.562,6.844
	c2.06-1.578,3.392-1.808,5.682-0.389C281.215,892.291,287.424,894.811,295.37,894.689z M171.995,769.211
	c-0.001,4.541,3.586,7.103,7.732,5.452c1.94-0.772,3.711-2.045,5.441-3.257c5.524-3.871,11.128-7.56,17.912-8.857
	c4.156-0.796,8.368-1.349,12.474-2.347c3.898-0.947,4.826-4.111,2.267-7.207c-2.263-2.737-5.354-4.244-8.739-5.031
	c-12.291-2.856-30.852,6.236-36.257,17.651C172.247,766.833,172.112,768.092,171.995,769.211z M343.198,752.337
	c-4.526,0.06-8.849,0.598-12.673,3.032c-2.407,1.531-4.215,3.641-3.346,6.77c0.889,3.195,3.525,3.822,6.427,3.81
	c0.471-0.003,0.95-0.023,1.411-0.111c7.821-1.492,14.925,0.541,21.787,4.192c3.845,2.046,7.855,3.787,11.83,5.58
	c1.59,0.718,3.266,0.723,4.643-0.546c1.387-1.275,1.393-2.974,0.915-4.606c-0.326-1.11-0.901-2.186-1.54-3.162
	C365.68,756.642,354.645,754.08,343.198,752.337z M268.019,865.043c2.366,0,4.142,0.09,5.907-0.018
	c4.842-0.294,9.821-4.039,10.295-7.656c0.837-6.374-1.718-10.553-7.654-12.555c-5.615-1.894-11.151-1.553-16.568,0.693
	c-4.991,2.069-7.231,8.128-4.953,13.041C257.783,864.449,262.738,865.715,268.019,865.043z"/>
<path fill-rule="evenodd" clip-rule="evenodd" fill="#FB8B80" d="M587.58,129.05l0.155-0.099c0,0-0.031-0.182-0.031-0.183
	c0.227-0.37,0.453-0.739,0.681-1.108c0,0-0.027,0.049-0.028,0.049c2.825-3.506,4.935-7.46,7.117-11.368l-0.023,0.028
	c1.09-0.683,1.627-1.759,2.07-2.902l0.014-0.015c1.202-1.238,2.44-2.451,3.016-4.147l-0.044,0.067
	c3.73-4.123,7.299-8.377,10.572-12.875l-0.027,0.03c5.67-5.687,11.34-11.374,17.009-17.06l-0.013,0.009
	c2.044-0.81,3.518-2.174,4.197-4.312c0,0,0.008-0.038,0.008-0.037c0.21-0.228,0.421-0.455,0.632-0.683
	c1.675,0.137,2.846-0.868,4.041-1.798c22.158-17.255,47.034-28.796,74.483-34.437c20.002-4.11,40.174-4.712,60.495-1.476
	c29.442,4.689,55.919,16.017,79.113,34.627c33.062,26.529,53.549,60.941,62.916,102.171c4.734,20.838,5.625,41.94,3.118,62.995
	c-4.419,37.106-18.122,70.597-41.601,99.888c-0.211,0.262-0.554,0.419-0.835,0.625c-5.726-1.715-10.489-0.523-12.711,3.18
	c-3.089,2.682-3.128,4.454-0.233,7.049c0.706,0.633,2.118,0.766,1.78,2.244c-4.936,6.554-11.287,11.646-17.605,16.718
	c-23.324,18.723-49.678,31.281-79.021,36.89c-27.151,5.19-54.291,4.321-80.838-3.926c-51.57-16.019-87.605-49.545-109.183-98.683
	c-11.064-25.196-15.587-51.786-14.887-79.34c0.581-22.891,5.492-44.83,13.315-66.218c1.167-3.189,2.611-6.277,3.927-9.411
	c1.526-1.978,2.48-4.243,3.309-6.57c0.118-0.308,0.236-0.614,0.354-0.922c1.393-1.901,2.669-3.865,3.316-6.167l0.186-0.137
	c0,0-0.036-0.228-0.036-0.229C587.052,130.869,587.498,130.055,587.58,129.05z M738.497,330.492
	c0.056-1.666-1.079-1.503-2.168-1.412c-0.202,0.005-0.392-0.041-0.569-0.136c-0.16-1.701,0.376-3.164,1.367-4.544
	c1.451-2.021,2.27-4.279,2.148-6.815c1.354-2.968,1.863-6.3,4.004-8.937c1.104-1.358,0.859-2.816-0.044-4.271
	c-1.45-2.339-3.495-4.125-5.343-6.107c-1.593-1.709-4.253-2.736-4.753-5.049c-0.585-2.709-2.288-4.302-4.073-5.966
	c-1.625-1.515-3.397-2.871-5.077-4.329c-3.546-3.078-4.093-7.847-0.622-10.157c2.805-1.866,4.023-4.498,5.407-7.153
	c2.418-4.64,1.577-7.93-3-10.32c-13.458-7.025-27.223-13.42-41.229-19.282c-2.911-1.218-5.773-2.959-9.051-0.945
	c-0.712,0.438-1.387,0.005-1.89-0.525c-1.292-1.363-2.957-1.234-4.616-1.292c-7.781-0.271-15.599-0.195-23.33-0.972
	c-10.492-1.055-20.946-0.86-31.424-0.303c-1.862,0.099-4.184,0.242-4.928,2.189c-1.111,2.91-2.14,5.851-1.636,9.238
	c0.942,6.351,2.412,12.702,1.381,19.22c-0.121,0.762-0.048,1.855,0.411,2.356c1.716,1.867,1.475,4.122,1.675,6.336
	c0.264,2.927,0.531,5.864,1.026,8.757c1.225,7.146,2.277,14.223,4.722,21.24c1.708,4.905,2.849,10.027,5.407,14.676
	c7.258,13.187,14.548,26.351,24.012,38.146c2.372,2.955,6.083,2.519,8.054-0.746c3.23-5.35,6.399-10.721,8.747-16.539
	c0.848-2.098,1.973-3.221,4.509-1.704c4.27,2.554,9.1,3.779,13.867,5.087c1.601,0.439,3.252,0.893,4.464,2.044
	c2.1,1.996,4.074,3.298,7.386,2.698c2.062-0.373,4.881,0.534,6.619,1.846c4.986,3.764,9.023,1.629,13.175-1.26
	c4.177-2.907,7.847-6.412,11.558-9.858c1.448-1.345,2.317-2.073,3.73,0.178c1.228,1.956,2.972,3.666,5.191,4.685
	c0.507,2.821,5.46,6.009,7.981,5.069c0.292-0.108,0.373-0.781,0.552-1.193c0.402-0.007,0.804-0.013,1.206-0.02
	c3.48,0.899,4.723-1.227,5.107-4.047c0.469-3.442-1.945-6.545-5.125-6.962c-0.189,0.035-0.364,0.001-0.527-0.101
	c-0.007-1.564-1.055-1.516-2.152-1.39l-0.018-0.01c0.059-1.61-1.013-1.522-2.106-1.402L738.497,330.492z M832.297,256.708
	c0.876-0.094,1.311-0.575,1.282-1.463c0.011-1.897,0.021-3.793,0.032-5.69c-0.191-8.004-1.475-15.862-2.983-23.708
	c-1.283-6.669-2.303-13.39-3.332-20.104c-0.421-2.741-0.128-5.135,3.359-5.922c1.396-0.314,2.778-1.252,3.656-2.601
	c3.51-1.703,7.381-2.458,10.861-4.292c4.281-2.255,9.124-3.673,12.956-6.496c4.741-3.493,9.772-6.664,13.306-11.881
	c3.417-5.043,3.292-11.709-1.642-15.318c-4.216-3.083-9.347-4.079-14.057-5.789c-6.459-2.345-13.469-3.154-20.218-4.732
	c-1.825-0.426-3.541-1.188-5.486-1.236c-6.899-0.172-8.781-1.719-11.355-8.21c-1.846-4.651-3.382-9.651-6.271-13.607
	c-3.934-5.384-5.622-12.056-10.499-16.844c-3.34-3.279-5.846-7.628-11.579-6.759c-1.388,0.209-2.831,0.057-4.248,0.07
	c-3.828,0.097-6.995,3.856-7.09,8.415c-0.959,2.771-3.387,4.553-4.638,7.226c-3.26,6.966-7.641,13.392-10.487,20.556
	c-1.069,2.693-2.482,3.679-5.239,3.49c-2.831-0.193-5.428-1.559-8.32-1.397c-10.681,0.597-21.338-1.508-32.057-0.075
	c-5.968,0.797-11.754,1.538-16.646,5.556c-1.245,1.023-1.838,1.96-1.957,3.444c-0.317,3.954,1.493,7.1,3.99,9.828
	c2.99,3.268,6.245,6.281,9.512,9.292c4.854,4.475,9.782,8.853,14.812,13.123c0.001,2.265,0.242,4.115,3.286,4.332
	c1.9,0.136,5.046,5.888,3.934,6.527c-2.144,1.233-1.298,3.009-1.56,4.608c-0.213,0.665-0.271,1.443-0.662,1.979
	c-3.21,4.397-4.593,9.669-6.964,14.465c-3.816,7.719-5.194,16.557-10.994,23.4c-2.166,2.554-1.524,5.872-0.813,8.828
	c0.394,1.635,6.837,4.203,8.712,3.681c6.441-1.797,12.829-3.794,19.018-6.34c5.412-2.226,10.587-5.001,15.899-7.411
	c6.417-2.91,12.395-6.5,18.301-10.204c4.956-3.108,5.046-3.381,8.815,0.955c0.227,0.26,0.59,0.398,0.828,0.651
	c3.827,4.072,6.84,8.808,11.13,12.558c2.565,2.242,4.804,4.995,7.374,7.326c2.747,2.492,5.57,4.921,8.326,7.38
	c4.497,4.012,9.053,7.093,15.344,6.536c2.281-0.472,3.563-1.994,4.304-4.087L832.297,256.708z M797.738,358.803
	c3.899-0.409,8.502-0.376,12.813-2.258c2.816-1.229,2.919-3.604,2.332-5.952c-0.569-2.277-2.831-2.916-4.78-2.838
	c-5.167,0.205-10.332,0.663-15.473,1.245c-2.42,0.273-4.07,1.902-4.39,4.365c-0.34,2.634,1.218,4.149,3.58,4.991
	C793.549,358.97,795.331,358.643,797.738,358.803z M761.855,343.189c-2.953,0.289-5.392,0.824-6.084,3.802
	c-0.666,2.867,0.762,4.773,3.288,5.898c4.254,1.896,8.855,2.45,13.397,2.744c2.702,0.175,4.553-1.893,4.883-4.665
	c0.301-2.524-0.925-4.407-3.44-5.041C769.799,344.894,765.651,344.043,761.855,343.189z M831.698,355.113
	c2.712-0.518,6.155-0.523,9.422-1.639c3.646-1.245,5.558-3.693,4.901-6.295c-0.716-2.839-4.283-4.656-7.803-3.595
	c-2.731,0.823-5.532,1.133-8.294,1.698c-3.808,0.779-5.601,2.478-5.394,5.348C824.735,353.472,827.146,355.131,831.698,355.113z"/>
<path fill-rule="evenodd" clip-rule="evenodd" fill="#F9DA50" d="M606.102,607.563c-0.447,38.206-14.194,67.417-41.072,90.52
	c-23.303,20.03-49.981,34.011-78.666,44.548c-8.628,3.17-17.324,6.103-26.04,9.004c-2.358,0.785-3.476,0.238-5.201-1.729
	c-4.829-5.51-4.654-10.183-0.723-16.437c6.693-10.65,9.431-22.813,9.913-35.388c0.661-17.28-0.898-34.393-3.922-51.407
	c-2.655-14.945-3.346-30.002-1.982-45.143c0.414-4.591,0.792-9.217-2.187-13.279c-0.638-0.871-0.331-1.728,0.09-2.653
	c7.458-16.372,15.591-32.316,28.832-44.963c13.31-12.712,28.944-19.893,47.594-20.29c17.373-0.37,32.812,4.441,45.913,16.048
	c9.147,8.104,14.791,18.53,19.244,29.682C603.564,580.275,605.595,595.175,606.102,607.563z M589.545,604.4
	c0.151-7.521-0.116-14.221-2.414-20.686c-1.09-3.064-2.449-5.879-5.354-7.657c-1.668-1.021-3.357-1.049-5.017-0.088
	c-1.586,0.918-2.235,2.386-2.055,4.193c0.105,1.055,0.139,2.159,0.484,3.143c1.789,5.082,2.25,10.369,2.477,15.68
	c0.891,20.872-4.051,40.026-17.111,56.663c-7.66,9.759-16.023,18.895-25.173,27.292c-3.292,3.021-3.708,6.612-1.085,9.28
	c2.437,2.48,6.062,2.3,8.746-0.572c7.248-7.756,14.563-15.446,21.689-23.321C581.392,649.917,590.17,628.603,589.545,604.4z
	 M496.555,707.836c-4.96-0.07-8.934,3.688-8.985,8.501c-0.052,4.801,3.597,8.588,8.339,8.655c4.751,0.068,9.091-4.205,9.118-8.977
	C505.051,711.547,501.278,707.904,496.555,707.836z M527.968,702.228c0.031-4.644-3.534-8.293-8.182-8.376
	c-4.696-0.083-8.567,3.462-8.656,7.928c-0.089,4.527,3.947,8.463,8.633,8.419C524.291,710.154,527.939,706.611,527.968,702.228z"/>
<path fill-rule="evenodd" clip-rule="evenodd" fill="#F8DA50" d="M64.313,573.571c3.352-9.834,7.28-19.476,12.204-28.583
	c8.634-15.971,20.861-28.286,39.358-31.819c14.273-2.726,27.59,0.811,39.287,9.749c14.771,11.287,20.88,27.229,23.857,44.742
	c1.401,8.246,2.079,16.58,1.611,25.001c-0.371,6.662-2.134,12.839-4.196,19.168c-5.263,16.152-16.465,28.475-25.797,42.008
	c-7.574,10.982-15.655,21.676-19.852,34.554c-4.505,13.824-6.519,27.998-4.998,42.544c0.414,3.961,0.13,7.966,1.472,12.163
	c-31.351-16.028-49.543-41.767-59.357-74.165c0,0.001,0.017,0.047,0.017,0.047c-0.203-0.623-0.405-1.248-0.607-1.871
	c0.273-3.272-0.1-6.389-2.188-9.094l-0.137-0.135c0,0,0.081-0.175,0.081-0.172c-0.295-3.495-0.434-7.015-0.915-10.487
	c-1.505-10.858-4.098-21.578-4.089-32.627c0-0.822,0.084-1.703-1.022-1.953c-0.201-3.491-0.496-6.984,0.268-10.446
	c0.018-0.267,0.037-0.537,0.055-0.809c0,0,0.051-0.22,0.051-0.219c2.579-2.296,1.257-5.007,0.809-7.625
	c0.033-1.232-0.174-2.491,0.396-3.666c0.59-0.052,1.382-0.101,1.408-0.776C62.221,583.837,64.437,578.875,64.313,573.571z
	 M95.237,578.916c0.175-0.106,0.233-0.264,0.174-0.473l0.02-0.049c2.606-2.802,4.712-6.012,6.257-9.439
	c0.621-1.378,0.927-2.945,1.734-4.379c2.057-3.65,0.18-8.148-3.43-8.679c-3.763-0.802-6.463,0.871-8.402,3.871
	c-1.659,2.566-3.231,5.216-4.558,7.966c-11.024,22.843-14.699,46.869-11.319,71.978c0.77,5.721,1.697,11.424,2.723,17.104
	c0.508,2.815,5.037,5.953,6.867,5.034c3.139-1.579,5.148-5.535,4.433-9.111c-1.949-9.748-3.053-19.594-3.162-29.522
	c-0.124-11.355,0.789-22.602,4.764-33.392c2.037-3.039,3.972-6.113,3.45-10.033C94.938,579.499,95.087,579.207,95.237,578.916z
	 M91.454,668.626c-5.149-0.02-9.178,4.052-9.117,9.213c0.058,4.832,4.271,9.01,9.081,9.005c4.867-0.006,9.037-4.085,9.16-8.959
	C100.706,672.802,96.609,668.645,91.454,668.626z M103.14,694.174c-4.721-0.004-8.787,3.977-8.9,8.711
	c-0.114,4.778,4.132,9.056,8.952,9.017c4.995-0.041,8.848-4.021,8.795-9.085C111.937,697.989,108.035,694.178,103.14,694.174z"/>
<path fill-rule="evenodd" clip-rule="evenodd" fill="#FBFBFB" d="M470.354,1005.012c-10.324,24.482-22.515,47.843-41.416,66.984
	c-12.614,12.774-27.778,21.839-44.168,28.876c-21.136,9.076-43.407,14.037-65.948,18.133c-27.766,5.044-55.699,5.163-83.649,2.982
	c-16.738-1.307-32.846-5.808-48.394-12.377c-26.285-11.106-46.408-29.302-62.064-52.818c-0.457-0.687-0.843-1.423-1.232-2.151
	c-0.155-0.29-0.227-0.624-0.46-1.291c6.801,2.271,13.321,4.526,19.89,6.629c21.15,6.771,42.721,11.71,64.826,13.953
	c17.049,1.73,34.126,2.028,51.261,0.468c41.583-3.787,82.304-11.86,121.821-25.239c31.454-10.649,61.801-23.875,88.378-44.412
	c0.164-0.127,0.444-0.104,0.669-0.15C470.014,1004.755,470.176,1004.893,470.354,1005.012z"/>
<path fill-rule="evenodd" clip-rule="evenodd" fill="#FAFAFA" d="M476.941,1051.381c7.721,13.165,14.34,26.355,15.878,41.476
	c0.939,9.229-1.124,18.05-3.928,26.713c-2.218,6.854-5.046,13.442-10.207,18.725c-5.022,5.141-8.825,5.128-13.729-0.117
	c-6.572-7.03-11.181-15.417-16.142-23.554c-3.001-4.922-5.849-9.938-8.902-14.827c-0.932-1.491-1.223-2.464,0.168-3.911
	c9.79-10.188,17.885-21.847,27.831-31.933C471.409,1060.405,473.827,1055.795,476.941,1051.381z"/>
<path fill-rule="evenodd" clip-rule="evenodd" fill="#FB8B80" d="M640.029,409.323c4.315-5.543,9.798-4.859,15.562-2.99
	c5.632,1.826,10.725,4.834,16.082,7.255c4.087,1.846,8.087,3.833,12.461,4.914c1.342,0.331,2.404,0.837,2.644,2.422
	c1.28,8.5,4.016,16.752,4.37,25.406c0.145,3.535,0.184,7.067-1.623,10.337c-0.772,1.398-1.489,2.259-3.292,1.585
	c-3.303-1.234-6.656-2.133-10.294-1.937c-1.776,0.096-3.335-1.191-4.523-2.525c-2.639-2.959-6.167-4.242-9.768-5.399
	c-0.752-0.242-1.753-0.463-2.399-0.168c-7.078,3.229-13.512,0.781-19.51-2.646c-3.903-2.229-8.115-3.017-12.234-4.292
	c-8.299-2.57-9.635-2.768-5.701-12.82c0.242-0.619,0.792-1.117,1.199-1.671c2.387-0.727,4.61-1.944,5.864-4.043
	c1.521-2.546,3.637-4.478,5.478-6.692C636.22,413.8,639.421,412.625,640.029,409.323z"/>
<path fill-rule="evenodd" clip-rule="evenodd" fill="#FAFAFA" d="M439.779,723.569c-6.375-10.941-15.809-18.542-24.253-27.048
	c-3.833-3.861-8.029-7.34-12.741-10.044c-2.501-1.436-2.248-2.501-0.705-4.453c5.984-7.573,12.221-14.948,17.481-23.086
	c7.223-11.173,13.776-22.709,19.942-35.644c0.443,4.322,0.933,7.791,1.129,11.277c0.464,8.254,2.474,16.283,3.418,24.454
	c1.935,16.729,4.419,33.486,1.086,50.323C444.181,714.178,442.363,718.749,439.779,723.569z"/>
<path fill-rule="evenodd" clip-rule="evenodd" fill="#FAFAFA" d="M501.938,866.739c-4.097-19.361-9.035-38.258-17.068-56.199
	c-0.997-2.227-0.593-3.482,1.373-4.999c9.253-7.141,19.067-12.97,30.867-14.776c4.489-0.688,7.772,0.647,10.023,4.753
	c4.224,7.703,3.925,15.908,2.09,24.12c-3.452,15.447-11.648,28.458-21.343,40.653c-1.615,2.031-3.284,4.021-4.946,6.013
	C502.806,866.457,502.532,866.487,501.938,866.739z"/>
<path fill-rule="evenodd" clip-rule="evenodd" fill="#FAFAFA" d="M137.854,1174.691c-7.634,0.093-8.976-1.588-6.557-8.727
	c3.742-11.041,9.434-21.266,13.661-32.107c2.01-5.155,4.175-10.256,6.001-15.475c0.727-2.079,1.369-1.933,2.922-0.918
	c13.096,8.564,27.015,15.337,42.304,19.021c1.857,0.447,1.324,1.318,0.581,2.181c-2.227,2.582-4.403,5.227-6.828,7.614
	c-10.038,9.883-20.833,18.745-33.934,24.371C150.213,1173.139,144.186,1174.604,137.854,1174.691z"/>
<path fill-rule="evenodd" clip-rule="evenodd" fill="#F9F5F3" d="M181.411,641.243c0.456,8.999,0.876,17.209,1.288,25.419
	c0.2,4.002,0.645,7.963,1.707,11.846c0.441,1.613,0.536,3.052-1.148,4.355c-14.123,10.933-26.793,23.371-38.124,37.178
	c-0.271,0.329-0.621,0.594-1.475,1.396c-0.077-10.203,0.878-19.546,4.205-28.559c4.721-12.789,13.341-23.195,20.986-34.188
	C172.803,653.004,176.937,647.443,181.411,641.243z"/>
<path fill-rule="evenodd" clip-rule="evenodd" fill="#F9F5F3" d="M72.787,856.12c-0.834-8.093-1.714-15.554-2.348-23.034
	c-1.028-12.128-1.209-24.254,0.761-36.327c1.48-9.066,3.51-17.953,8.365-26.248c1.951,1.855,2.295,4.146,3.014,6.148
	c3.02,8.414,5.817,16.908,8.779,25.344c0.503,1.434,0.535,2.654-0.083,4.052c-7.006,15.855-13.012,32.071-17.506,48.828
	C73.714,855.086,73.493,855.242,72.787,856.12z"/>
<path fill-rule="evenodd" clip-rule="evenodd" fill="#F9F5F3" d="M107.538,1020.43c-2.078-4.951-3.128-9.466-4.316-13.944
	c-2.479-9.347-3.683-18.917-5.221-28.434c-0.478-2.953,0.728-3.749,3.37-3.84c7.032-0.239,12.644,4.744,13.446,12.217
	c1.127,10.509-2.085,20.229-5.598,29.878C108.794,1017.472,108.285,1018.605,107.538,1020.43z"/>
<path fill-rule="evenodd" clip-rule="evenodd" fill="#F9F5F3" d="M87.216,1038.961c-1.56,1.69-3.508,1.372-5.13,1.563
	c-13.176,1.558-25.606-0.263-36.413-8.705c-2.138-1.671-5.542-4.065-4.699-6.025c1.131-2.626,5.184-1.838,8.057-1.755
	c5.923,0.17,11.707,1.437,17.216,3.494c3.825,1.429,8.37,1.014,11.518,3.995C80.673,1034.282,83.689,1036.852,87.216,1038.961z"/>
<path fill-rule="evenodd" clip-rule="evenodd" fill="#EBAE84" d="M59.039,612.641c1.106,0.25,1.023,1.131,1.022,1.953
	c-0.009,11.049,2.583,21.769,4.089,32.627c0.481,3.473,0.62,6.992,0.915,10.487C61.143,642.939,57.943,628.077,59.039,612.641z"/>
<path fill-rule="evenodd" clip-rule="evenodd" fill="#F9F5F3" d="M863.451,349.511c0.338-1.478-1.074-1.61-1.78-2.244
	c-2.895-2.595-2.855-4.367,0.234-7.048c2.537-0.079,5.122,0.467,7.496-1.123c1.092-0.73,1.974,0.09,2.476,1.18
	C869.679,343.911,867.24,347.328,863.451,349.511z"/>
<path fill-rule="evenodd" clip-rule="evenodd" fill="#EBAE84" d="M640.029,409.323c-0.608,3.301-3.81,4.477-5.686,6.733
	c-1.841,2.215-3.957,4.146-5.478,6.692c-1.254,2.099-3.478,3.317-5.864,4.043c3.174-6.569,8.847-10.86,14.152-15.477
	C638.029,410.555,639.067,409.982,640.029,409.323z"/>
<path fill-rule="evenodd" clip-rule="evenodd" fill="#0B0806" d="M628.06,79.467c-5.669,5.686-11.339,11.373-17.009,17.06
	c2.354-3.814,3.48-8.335,8.421-10.468c1.931-0.834,3.793-3.305,5.589-5.129C625.881,80.096,626.661,79.134,628.06,79.467z"/>
<path fill-rule="evenodd" clip-rule="evenodd" fill="#EBAE84" d="M871.877,340.277c-0.502-1.09-1.384-1.911-2.476-1.18
	c-2.374,1.589-4.959,1.043-7.496,1.123c2.221-3.704,6.984-4.896,12.71-3.181C873.703,338.119,872.79,339.198,871.877,340.277z"/>
<path fill-rule="evenodd" clip-rule="evenodd" fill="#0B0806" d="M611.078,96.496c-3.273,4.498-6.842,8.753-10.572,12.875
	c-1.116-3.005,2.331-3.566,3.091-5.689c0.985-2.756,2.415-5.503,5.468-6.812C609.75,96.578,610.376,96.46,611.078,96.496z"/>
<path fill-rule="evenodd" clip-rule="evenodd" fill="#EBAE84" d="M64.313,573.571c0.124,5.304-2.091,10.266-2.288,15.53
	c-0.025,0.675-0.817,0.724-1.408,0.776C61.24,584.304,61.706,578.695,64.313,573.571z"/>
<path fill-rule="evenodd" clip-rule="evenodd" fill="#0B0806" d="M595.474,116.341c-2.183,3.908-4.292,7.862-7.117,11.368
	C589.79,123.332,591.291,118.997,595.474,116.341z"/>
<path fill-rule="evenodd" clip-rule="evenodd" fill="#0B0806" d="M586.137,131.883c-0.647,2.302-1.924,4.265-3.316,6.167
	C581.749,133.983,582.452,132.674,586.137,131.883z"/>
<path fill-rule="evenodd" clip-rule="evenodd" fill="#0B0806" d="M632.244,75.164c-0.68,2.138-2.153,3.502-4.197,4.312
	C627.71,76.348,629.136,74.937,632.244,75.164z"/>
<path fill-rule="evenodd" clip-rule="evenodd" fill="#EBAE84" d="M60.221,593.542c0.448,2.618,1.77,5.328-0.809,7.625
	C59.554,598.611,59.125,595.996,60.221,593.542z"/>
<path fill-rule="evenodd" clip-rule="evenodd" fill="#EBAE84" d="M65.121,658.015c2.088,2.705,2.462,5.821,2.188,9.094
	C66.087,664.195,65.616,661.103,65.121,658.015z"/>
<path fill-rule="evenodd" clip-rule="evenodd" fill="#0B0806" d="M582.467,138.972c-0.829,2.327-1.783,4.593-3.309,6.57
	C579.338,142.887,580.096,140.523,582.467,138.972z"/>
<path fill-rule="evenodd" clip-rule="evenodd" fill="#0B0806" d="M600.55,109.305c-0.575,1.696-1.813,2.909-3.016,4.147
	C597.122,111.04,598.646,110.034,600.55,109.305z"/>
<path fill-rule="evenodd" clip-rule="evenodd" fill="#0B0806" d="M597.521,113.467c-0.443,1.143-0.98,2.22-2.07,2.902
	C595.58,115.002,595.797,113.697,597.521,113.467z"/>
<path fill-rule="evenodd" clip-rule="evenodd" fill="#0B0806" d="M587.58,129.05c-0.082,1.005-0.528,1.819-1.294,2.468
	C586.192,130.419,585.937,129.237,587.58,129.05z"/>
<path fill-rule="evenodd" clip-rule="evenodd" fill="#EBAE84" d="M59.361,601.386c-0.018,0.271-0.037,0.542-0.055,0.809
	c-0.061-0.195-0.147-0.385-0.17-0.581C59.129,601.548,59.281,601.462,59.361,601.386z"/>
<polygon fill-rule="evenodd" clip-rule="evenodd" fill="#EBAE84" points="67.917,668.979 67.9,668.933 67.858,668.863 "/>
<path fill-rule="evenodd" clip-rule="evenodd" fill="#0B0806" d="M632.884,74.444c-0.211,0.228-0.422,0.455-0.632,0.683
	C632.462,74.899,632.673,74.671,632.884,74.444z"/>
<path fill-rule="evenodd" clip-rule="evenodd" fill="#0B0806" d="M588.385,127.66c-0.228,0.369-0.454,0.738-0.681,1.108
	C587.931,128.4,588.157,128.03,588.385,127.66z"/>
<path fill-rule="evenodd" clip-rule="evenodd" fill="#FBFBFB" d="M469.868,1004.598c0.053-0.325,0.179-0.652,0.549-0.405
	c0.111,0.074-0.037,0.535-0.064,0.818C470.176,1004.893,470.014,1004.755,469.868,1004.598z"/>
<path fill-rule="evenodd" clip-rule="evenodd" fill="#EBAE84" d="M186.73,858.077c1.586,4.626,4.259,8.772,5.52,13.579
	c5.082,19.374,0.037,36.075-14.03,49.712c-12.036,11.668-26.959,15.223-43.467,12.331c-9.08-1.592-17.081-5.503-23.672-11.746
	c-12.419-11.762-18.064-26.1-15.842-43.448c1.246-9.726,5.039-18.14,11.221-25.461c8.146-9.646,18.495-15.415,31.168-17.291
	c9.713-1.438,18.814,0.527,27.628,3.938c3.957,1.531,7.337,4.586,10.908,7.055c0.888,0.613,1.754,1.154,2.777,1.458
	C180.954,851.956,183.809,855.043,186.73,858.077z"/>
<path fill-rule="evenodd" clip-rule="evenodd" fill="#EBAE84" d="M367.374,932.597c-0.464-2.843-3.382-3.046-5.092-4.443
	c-13.217-10.808-19.85-24.576-19.261-41.638c0.314-9.104,3.35-17.477,7.917-25.311c5.694,0.097,10.854-1.559,15.362-4.998
	c4.909-3.746,7.572-9.082,9.882-14.621c5.384-1.204,10.713-2.369,16.339-2.351c17.033,0.057,30.534,7.023,40.392,20.634
	c10.981,15.16,12.641,32.042,5.259,48.895c-7.119,16.252-20.114,26.271-38.001,29.214c-1.132,0.187-2.456-0.095-2.819,1.497
	C388.732,931.201,378.68,929.169,367.374,932.597z"/>
<path fill-rule="evenodd" clip-rule="evenodd" fill="#070404" d="M367.374,932.597c11.306-3.428,21.358-1.396,29.978,6.878
	c9.727,10.863,10.207,23.253,6.032,36.427c-4.26,13.441-12.735,24.062-22.632,33.698c-5.66,5.512-11.613,10.703-17.875,15.529
	c-2.724,2.099-5.658,3.865-8.874,5.057c-3.807,1.411-7.59,1.747-10.989-1.174c-0.431-0.37-0.941-0.808-1.464-0.889
	c-13.921-2.146-23.77-10.779-32.926-20.555c-9.19-9.811-16.315-20.707-18.511-34.303c-1.179-7.302-1.488-14.579,0.682-21.728
	c3.838-12.644,16.179-19.442,29.906-17.034c8.263,1.45,15.469,4.882,21.823,10.188c2.05,1.712,3.328,2.042,5.457-0.153
	C353.39,938.957,360.046,935.179,367.374,932.597z M307.455,963.487c0.187,1.875,0.308,3.759,0.57,5.624
	c1.388,9.879,6.633,17.752,13.225,24.834c5.542,5.953,11.152,11.82,18.953,15.042c8.178,3.378,9.373,3.309,15.799-2.73
	c0.773-0.728,1.565-1.437,2.364-2.136c8.336-7.307,16.655-14.69,22.407-24.31c4.076-6.815,7.452-14.039,5.618-22.395
	c-1.192-5.432-4.707-8.034-10.274-7.493c-7.397,0.719-13.043,4.986-17.396,10.454c-6.348,7.975-15.432,8.972-23.154,2.646
	c-4.236-3.47-8.282-7.383-13.754-9.077C310.657,950.49,307.083,953.929,307.455,963.487z"/>
<path fill-rule="evenodd" clip-rule="evenodd" fill="#030303" d="M376.182,841.586c-2.31,5.539-4.973,10.875-9.882,14.621
	c-4.508,3.439-9.667,5.095-15.362,4.998c-17.401-2.385-25.11-18.2-26.466-30.263c-0.83-7.382-0.101-14.657,3.357-21.38
	c9.163-17.811,28.985-19.924,41.526-4.063c7.587,9.597,10.379,20.723,7.083,32.924C376.168,839.427,376.259,840.529,376.182,841.586
	z"/>
<path fill-rule="evenodd" clip-rule="evenodd" fill="#030303" d="M186.73,858.077c-2.921-3.034-5.776-6.121-7.789-9.873
	c-4.981-10.31-6.273-20.908-2.539-31.918c4.558-13.438,16.884-20.937,28.978-17.526c8.094,2.282,13.888,7.606,17.499,14.914
	c6.975,14.114,7.365,28.187-2.422,41.335C212.364,865.882,196.903,867.138,186.73,858.077z"/>
<path fill-rule="evenodd" clip-rule="evenodd" fill="#0B0806" d="M295.37,894.689c-7.946,0.121-14.155-2.398-19.915-5.969
	c-2.29-1.419-3.622-1.189-5.682,0.389c-12.291,9.42-29.423,6.212-37.562-6.844c-0.826-1.325-1.402-2.719-1.725-4.231
	c-0.745-3.499,0.466-6.57,3.233-7.838c3.131-1.436,5.828-0.47,7.924,2.007c2.991,3.533,5.862,6.97,10.871,7.885
	c2.802,0.512,5.183,0.057,7.384-1.393c2.548-1.679,5.007-3.477,7.628-5.067c3.511-2.132,5.204-2.087,8.054,0.696
	c7.806,7.621,16.997,9.853,27.536,7.107c4.552-1.187,6.984-4.043,7.77-8.537c0.141-0.809,0.29-1.627,0.544-2.404
	c0.979-3.003,2.841-4.925,6.236-4.549c2.852,0.315,5.161,2.959,5.231,6.249c0.14,6.5-2.326,11.938-7.26,16.19
	C309.515,893.657,301.967,894.235,295.37,894.689z"/>
<path fill-rule="evenodd" clip-rule="evenodd" fill="#0B0806" d="M171.995,769.211c0.117-1.119,0.252-2.378,0.829-3.596
	c5.406-11.415,23.966-20.508,36.257-17.651c3.385,0.787,6.477,2.294,8.739,5.031c2.559,3.096,1.631,6.26-2.267,7.207
	c-4.105,0.998-8.317,1.551-12.474,2.347c-6.784,1.298-12.388,4.986-17.912,8.857c-1.73,1.212-3.501,2.484-5.441,3.257
	C175.581,776.313,171.994,773.752,171.995,769.211z"/>
<path fill-rule="evenodd" clip-rule="evenodd" fill="#0B0806" d="M343.198,752.337c11.446,1.743,22.481,4.305,29.453,14.958
	c0.639,0.977,1.214,2.052,1.54,3.162c0.479,1.633,0.473,3.331-0.915,4.606c-1.377,1.269-3.053,1.264-4.643,0.546
	c-3.975-1.793-7.985-3.534-11.83-5.58c-6.862-3.651-13.965-5.685-21.787-4.192c-0.461,0.088-0.94,0.108-1.411,0.111
	c-2.902,0.013-5.539-0.614-6.427-3.81c-0.87-3.129,0.938-5.238,3.346-6.77C334.349,752.935,338.672,752.396,343.198,752.337z"/>
<path fill-rule="evenodd" clip-rule="evenodd" fill="#EBAE84" d="M268.019,865.043c-5.28,0.672-10.235-0.594-12.972-6.494
	c-2.279-4.913-0.039-10.972,4.953-13.041c5.417-2.246,10.953-2.587,16.568-0.693c5.936,2.002,8.491,6.181,7.654,12.555
	c-0.475,3.617-5.453,7.362-10.295,7.656C272.161,865.133,270.385,865.043,268.019,865.043z"/>
<path fill-rule="evenodd" clip-rule="evenodd" fill="#FBDA50" d="M833.611,249.555c-0.011,1.897-0.021,3.793-0.032,5.69
	c-0.93,0.046-1.375,0.519-1.282,1.463c0,0-0.062,0.06-0.063,0.059c-2.09,0.673-3.351,2.217-4.303,4.088
	c-6.291,0.557-10.847-2.524-15.344-6.536c-2.756-2.459-5.579-4.889-8.326-7.38c-2.57-2.331-4.809-5.084-7.374-7.326
	c-4.29-3.75-7.303-8.486-11.13-12.558c-0.238-0.253-0.602-0.391-0.828-0.651c-3.77-4.336-3.859-4.063-8.815-0.955
	c-5.906,3.704-11.884,7.293-18.301,10.204c-5.313,2.41-10.487,5.185-15.899,7.411c-6.188,2.545-12.576,4.542-19.018,6.34
	c-1.875,0.522-8.318-2.046-8.712-3.681c-0.711-2.956-1.353-6.273,0.813-8.828c5.8-6.843,7.178-15.681,10.994-23.4
	c2.371-4.796,3.754-10.068,6.964-14.465c0.391-0.536,0.449-1.313,0.662-1.978c3.546-1.039,5.023-3.881,3.788-7.169
	c-0.91-2.424-2.894-3.971-4.806-5.385c-1.438-1.063-1.947-3.843-4.643-2.914c-5.029-4.27-9.957-8.648-14.812-13.123
	c-3.267-3.012-6.521-6.024-9.512-9.292c-2.497-2.728-4.308-5.874-3.99-9.828c0.119-1.484,0.712-2.421,1.957-3.444
	c4.893-4.018,10.679-4.758,16.646-5.556c10.719-1.434,21.376,0.671,32.057,0.075c2.893-0.162,5.489,1.204,8.32,1.397
	c2.757,0.188,4.17-0.797,5.239-3.49c2.847-7.164,7.228-13.59,10.487-20.556c1.251-2.673,3.679-4.455,4.638-7.225
	c2.895-2.358,5.641-4.84,7.09-8.416c1.417-0.014,2.86,0.139,4.248-0.07c5.733-0.869,8.239,3.48,11.579,6.759
	c4.877,4.788,6.565,11.46,10.499,16.844c2.89,3.956,4.426,8.956,6.271,13.607c2.574,6.491,4.456,8.038,11.355,8.21
	c1.945,0.049,3.661,0.81,5.486,1.236c6.749,1.578,13.759,2.387,20.218,4.732c4.71,1.709,9.841,2.705,14.057,5.789
	c4.934,3.609,5.059,10.275,1.642,15.318c-3.533,5.217-8.564,8.388-13.306,11.881c-3.832,2.823-8.675,4.241-12.956,6.496
	c-3.48,1.833-7.352,2.589-10.861,4.292c-1.413-0.019-2.837-0.146-4.24-0.033c-4.481,0.364-6.446,2.463-5.514,6.252
	c1.585,6.43,3.246,12.854,3.819,19.454c0.722,8.305,3.736,16.232,3.848,24.617C832.237,248.516,832.325,249.431,833.611,249.555z"/>
<path fill-rule="evenodd" clip-rule="evenodd" fill="#F9F5F3" d="M742.799,333.313c0.163,0.102,0.338,0.136,0.528,0.1
	c4.94,5.982,4.941,6.728,0.017,11.011c-0.402,0.007-0.804,0.013-1.205,0.021c-3.114-0.698-5.85-2.231-8.534-3.877
	c-2.22-1.019-3.964-2.729-5.191-4.685c-1.413-2.251-2.282-1.523-3.73-0.178c-3.711,3.446-7.381,6.951-11.558,9.858
	c-4.151,2.89-8.188,5.024-13.175,1.26c-1.738-1.313-4.558-2.219-6.619-1.846c-3.312,0.6-5.286-0.703-7.386-2.698
	c-1.212-1.151-2.863-1.605-4.464-2.044c-4.768-1.308-9.598-2.533-13.867-5.087c-2.536-1.517-3.661-0.394-4.509,1.704
	c-2.348,5.817-5.517,11.188-8.747,16.539c-1.971,3.265-5.682,3.701-8.054,0.746c-9.464-11.794-16.754-24.958-24.012-38.146
	c-2.559-4.649-3.699-9.771-5.407-14.676c-2.444-7.017-3.497-14.093-4.722-21.24c-0.495-2.893-0.763-5.83-1.026-8.757
	c-0.2-2.214,0.041-4.469-1.675-6.336c-0.459-0.5-0.532-1.594-0.411-2.356c1.031-6.518-0.438-12.87-1.381-19.22
	c-0.504-3.387,0.524-6.328,1.636-9.238c0.744-1.948,3.065-2.09,4.928-2.189c10.478-0.557,20.932-0.751,31.424,0.303
	c7.731,0.777,15.549,0.701,23.33,0.972c1.659,0.058,3.324-0.07,4.616,1.292c0.503,0.53,1.178,0.962,1.89,0.525
	c3.277-2.015,6.14-0.273,9.051,0.945c14.007,5.862,27.771,12.257,41.229,19.282c4.577,2.39,5.418,5.68,3,10.32
	c-1.384,2.655-2.603,5.287-5.407,7.153c-3.471,2.31-2.924,7.079,0.622,10.157c1.68,1.458,3.452,2.814,5.077,4.329
	c1.785,1.665,3.488,3.257,4.073,5.966c0.5,2.313,3.16,3.34,4.753,5.049c1.848,1.982,3.893,3.768,5.343,6.107
	c0.903,1.455,1.147,2.912,0.044,4.271c-2.141,2.637-2.65,5.969-4.003,8.938c-2.428,2.159-3.532,5.27-5.592,7.722
	c-2.186,2.604-0.733,3.624,2.075,3.636c0.178,0.096,0.367,0.141,0.57,0.136c0.305,1.11,1.147,1.396,2.167,1.413
	c0,0,0.025,0.019,0.026,0.018c0.213,1.201,1.123,1.356,2.105,1.403c0,0,0.018,0.01,0.018,0.01
	C740.862,333.163,741.814,333.262,742.799,333.313z M730.875,303.392l-0.003-0.006c-0.325-1.36-1.137-2.571-2.491-2.583
	c-1.342-0.011-1.624,1.44-1.902,2.584l0.005,0c-1.458,0.431-1.762,1.65-1.993,2.919c-3.223,4.025-6.358,8.123-9.689,12.057
	c-4.71,5.563-9.584,10.987-14.335,16.516c-0.783,0.911-1.974,1.932-1.032,3.346c1.418,2.128,6.157,2.847,8.303,1.278
	c4.09-2.991,7.755-6.479,11.501-9.879c5.821-5.283,10.594-11.326,13.71-18.559c0.614-1.426,2.306-2.942,0.699-4.789
	C733.307,304.754,732.388,303.788,730.875,303.392z M631.54,314.814c-0.068-0.054-0.138-0.107-0.208-0.16
	c0.077,0.046,0.153,0.093,0.229,0.14c4.408,9.926,10.829,18.639,16.714,27.671c1.15,1.767,1.907,0.915,2.728-0.487
	c1.901-3.25,3.772-6.545,6.007-9.562c1.316-1.778,1.035-2.526-0.717-3.472c-3.105-1.676-6.053-3.665-9.223-5.205
	C641.681,321.12,637.228,316.896,631.54,314.814z M722.322,292.067c0.212-1.482-0.344-2.59-1.689-3.493
	c-1.46-0.979-2.825-2.133-4.102-3.347c-12.795-12.171-25.124-24.806-37.003-37.868c-2.374-2.609-3.5-1.778-4.704,0.745
	c-0.253,0.531-0.457,1.086-0.714,1.616c-3.934,8.11-8.98,15.541-15.042,22.128c-9.417,10.232-19.958,19.296-31.065,27.667
	c-2.17,1.635-2.13,2.398,0.251,3.839c11.35,6.87,22.696,13.739,34.417,19.969c5.086,2.704,10.04,5.681,15.256,8.098
	c3.378,1.566,7.089,3.118,10.782,2.965c2.775-0.115,3.684-3.676,5.411-5.664c9.333-10.747,19.229-21.043,27.079-33.015
	C721.957,294.553,722.482,293.498,722.322,292.067z M646.965,241.067c0-0.271,0-0.542-0.001-0.812c-2.006,0-4.014,0.016-6.02-0.006
	c-1.402-0.015-2.424,0.291-3,1.845c-3.362,9.072-8.957,16.459-16.912,22.028c-1.573,1.101-2.112,2.457-1.78,4.553
	c0.977,6.16,1.645,12.371,2.375,18.568c0.217,1.828-0.137,4.352,1.426,5.071c1.329,0.612,2.399-1.838,3.668-2.83
	c0.464-0.364,0.89-0.775,1.343-1.154c9.854-8.256,19.565-16.671,27.812-26.601c4.515-5.437,8.387-11.329,11.646-17.604
	c0.951-1.832,1.271-3.221-1.82-3.12C659.462,241.211,653.211,241.067,646.965,241.067z M691.861,248.353
	c-0.314,0.362-0.63,0.724-0.944,1.086c1.663,1.371,3.439,2.627,4.97,4.134c6.012,5.926,11.949,11.927,17.905,17.91
	c0.888,0.892,1.502,0.913,2.109-0.33c1.136-2.319,2.317-4.62,3.593-6.863c1.032-1.813,0.506-2.713-1.354-3.454
	c-2.604-1.038-5.109-2.321-7.642-3.532C704.282,254.33,698.073,251.338,691.861,248.353z M617.783,254.942
	c4.447-3.631,7.684-7.893,10.145-12.766c0.658-1.303,0.905-2.488-1.316-2.438c-3.185,0.07-6.373,0.007-9.56-0.045
	c-1.418-0.024-2.001,0.72-1.763,1.979C616.11,245.992,615.912,250.513,617.783,254.942z"/>
<path fill-rule="evenodd" clip-rule="evenodd" fill="#F9F5F3" d="M797.738,358.803c-2.407-0.16-4.189,0.167-5.917-0.447
	c-2.362-0.842-3.92-2.357-3.58-4.991c0.319-2.463,1.97-4.092,4.39-4.365c5.141-0.582,10.306-1.04,15.473-1.245
	c1.949-0.078,4.211,0.561,4.78,2.838c0.587,2.348,0.484,4.723-2.332,5.952C806.24,358.427,801.638,358.394,797.738,358.803z"/>
<path fill-rule="evenodd" clip-rule="evenodd" fill="#F9F5F3" d="M761.855,343.189c3.796,0.854,7.943,1.704,12.044,2.738
	c2.516,0.634,3.741,2.517,3.44,5.041c-0.33,2.772-2.181,4.84-4.883,4.665c-4.542-0.294-9.144-0.848-13.397-2.744
	c-2.526-1.125-3.954-3.032-3.288-5.898C756.464,344.014,758.902,343.478,761.855,343.189z"/>
<path fill-rule="evenodd" clip-rule="evenodd" fill="#F9F5F3" d="M831.698,355.113c-4.552,0.018-6.963-1.641-7.167-4.482
	c-0.207-2.871,1.586-4.569,5.394-5.348c2.762-0.565,5.563-0.875,8.294-1.698c3.52-1.062,7.087,0.755,7.803,3.595
	c0.656,2.603-1.256,5.051-4.901,6.295C837.854,354.59,834.41,354.595,831.698,355.113z"/>
<path fill-rule="evenodd" clip-rule="evenodd" fill="#EBAE84" d="M833.611,249.555c-1.286-0.124-1.374-1.04-1.387-2.045
	c-0.111-8.384-3.126-16.312-3.848-24.617c-0.573-6.6-2.234-13.024-3.819-19.454c-0.933-3.789,1.032-5.888,5.514-6.252
	c1.403-0.113,2.827,0.014,4.24,0.033c-0.878,1.349-2.261,2.287-3.656,2.601c-3.487,0.787-3.78,3.181-3.359,5.922
	c1.029,6.714,2.049,13.435,3.332,20.104C832.137,233.693,833.42,241.551,833.611,249.555z"/>
<path fill-rule="evenodd" clip-rule="evenodd" fill="#EBAE84" d="M727.958,181.585c2.695-0.929,3.205,1.851,4.643,2.914
	c1.912,1.414,3.896,2.96,4.806,5.385c1.235,3.288-0.242,6.13-3.788,7.169c0.262-1.599-0.584-3.375,1.56-4.608
	c1.112-0.64-2.033-6.392-3.934-6.527C728.2,185.7,727.959,183.85,727.958,181.585z"/>
<path fill-rule="evenodd" clip-rule="evenodd" fill="#EBAE84" d="M735.76,328.944c-2.809-0.012-4.261-1.033-2.075-3.636
	c2.06-2.452,3.164-5.563,5.592-7.722c0.12,2.535-0.698,4.793-2.149,6.814C736.136,325.78,735.6,327.243,735.76,328.944z"/>
<path fill-rule="evenodd" clip-rule="evenodd" fill="#EBAE84" d="M786.079,102.126c-1.449,3.576-4.195,6.058-7.09,8.416
	C779.084,105.982,782.251,102.223,786.079,102.126z"/>
<path fill-rule="evenodd" clip-rule="evenodd" fill="#EBAE84" d="M743.344,344.423c4.925-4.283,4.924-5.028-0.017-11.011
	c3.179,0.418,5.593,3.521,5.124,6.963C748.066,343.196,746.824,345.322,743.344,344.423z"/>
<path fill-rule="evenodd" clip-rule="evenodd" fill="#EBAE84" d="M733.604,340.566c2.685,1.646,5.42,3.18,8.534,3.877
	c-0.18,0.411-0.261,1.083-0.553,1.192C739.064,346.576,734.111,343.387,733.604,340.566z"/>
<path fill-rule="evenodd" clip-rule="evenodd" fill="#EBAE84" d="M827.932,260.856c0.952-1.871,2.213-3.416,4.303-4.088
	C831.495,258.862,830.213,260.384,827.932,260.856z"/>
<path fill-rule="evenodd" clip-rule="evenodd" fill="#EBAE84" d="M742.799,333.313c-0.984-0.05-1.937-0.15-2.152-1.39
	C741.744,331.796,742.792,331.748,742.799,333.313z"/>
<path fill-rule="evenodd" clip-rule="evenodd" fill="#EBAE84" d="M740.629,331.913c-0.982-0.047-1.893-0.202-2.105-1.403
	C739.616,330.391,740.688,330.302,740.629,331.913z"/>
<path fill-rule="evenodd" clip-rule="evenodd" fill="#EBAE84" d="M738.497,330.492c-1.02-0.016-1.862-0.302-2.167-1.413
	C737.418,328.989,738.553,328.826,738.497,330.492z"/>
<path fill-rule="evenodd" clip-rule="evenodd" fill="#EBAE84" d="M832.297,256.708c-0.093-0.944,0.353-1.417,1.282-1.463
	C833.607,256.133,833.173,256.614,832.297,256.708z"/>
<path fill-rule="evenodd" clip-rule="evenodd" fill="#0B0806" d="M589.545,604.4c0.625,24.202-8.153,45.517-24.812,63.926
	c-7.126,7.875-14.441,15.565-21.689,23.321c-2.685,2.872-6.309,3.053-8.746,0.572c-2.623-2.668-2.207-6.259,1.085-9.28
	c9.149-8.397,17.513-17.533,25.173-27.292c13.061-16.637,18.002-35.791,17.111-56.663c-0.227-5.311-0.688-10.598-2.477-15.68
	c-0.346-0.983-0.379-2.087-0.484-3.143c-0.181-1.807,0.469-3.274,2.055-4.193c1.66-0.961,3.349-0.934,5.017,0.088
	c2.904,1.778,4.264,4.593,5.354,7.657C589.429,590.18,589.696,596.879,589.545,604.4z"/>
<path fill-rule="evenodd" clip-rule="evenodd" fill="#0B0806" d="M496.555,707.836c4.723,0.068,8.496,3.711,8.471,8.18
	c-0.026,4.771-4.367,9.045-9.118,8.977c-4.742-0.067-8.391-3.854-8.339-8.655C487.622,711.524,491.595,707.766,496.555,707.836z"/>
<path fill-rule="evenodd" clip-rule="evenodd" fill="#0B0806" d="M527.968,702.228c-0.029,4.384-3.677,7.927-8.205,7.971
	c-4.687,0.044-8.722-3.892-8.633-8.419c0.089-4.466,3.96-8.011,8.656-7.928C524.435,693.935,528,697.584,527.968,702.228z"/>
<path fill-rule="evenodd" clip-rule="evenodd" fill="#0B0806" d="M91.337,589.824c-3.975,10.79-4.887,22.036-4.764,33.392
	c0.108,9.929,1.212,19.774,3.162,29.522c0.715,3.576-1.294,7.532-4.433,9.111c-1.83,0.919-6.359-2.219-6.867-5.034
	c-1.026-5.681-1.953-11.384-2.723-17.104c-3.379-25.108,0.295-49.135,11.319-71.978c1.327-2.75,2.899-5.4,4.558-7.966
	c1.939-3,4.639-4.672,8.401-3.871c3.329,2.995,3.625,4.875,1.634,8.853c-2.237,4.467-5.023,8.691-6.194,13.645
	c0,0-0.02,0.049-0.019,0.048c0,0-0.238,0.195-0.238,0.195l0.063,0.279c-0.15,0.292-0.299,0.583-0.448,0.873
	C93.146,582.962,92.028,586.32,91.337,589.824z"/>
<path fill-rule="evenodd" clip-rule="evenodd" fill="#0B0806" d="M91.454,668.626c5.155,0.019,9.251,4.176,9.123,9.259
	c-0.123,4.874-4.292,8.953-9.16,8.959c-4.81,0.005-9.023-4.173-9.081-9.005C82.276,672.678,86.305,668.606,91.454,668.626z"/>
<path fill-rule="evenodd" clip-rule="evenodd" fill="#0B0806" d="M103.14,694.174c4.895,0.004,8.797,3.815,8.847,8.643
	c0.052,5.063-3.801,9.044-8.795,9.085c-4.819,0.039-9.066-4.238-8.952-9.017C94.353,698.15,98.419,694.17,103.14,694.174z"/>
<path fill-rule="evenodd" clip-rule="evenodd" fill="#EBAE84" d="M95.431,578.394c1.171-4.953,3.957-9.177,6.194-13.645
	c1.991-3.978,1.695-5.858-1.634-8.853c3.611,0.531,5.488,5.029,3.432,8.679c-0.808,1.434-1.113,3.001-1.734,4.379
	C100.143,572.382,98.037,575.592,95.431,578.394z"/>
<path fill-rule="evenodd" clip-rule="evenodd" fill="#EBAE84" d="M91.337,589.824c0.691-3.504,1.809-6.862,3.452-10.036
	C95.31,583.711,93.374,586.785,91.337,589.824z"/>
<path fill-rule="evenodd" clip-rule="evenodd" fill="#EBAE84" d="M95.237,578.916l-0.063-0.279c0,0,0.238-0.195,0.238-0.195
	C95.47,578.652,95.412,578.81,95.237,578.916z"/>
<path fill-rule="evenodd" clip-rule="evenodd" fill="#C0323C" d="M307.455,963.487c-0.371-9.559,3.202-12.997,14.358-9.541
	c5.472,1.694,9.518,5.607,13.754,9.077c7.722,6.326,16.806,5.329,23.154-2.646c4.352-5.468,9.999-9.735,17.396-10.454
	c5.567-0.541,9.082,2.062,10.274,7.493c1.834,8.355-1.542,15.579-5.618,22.395c-5.752,9.619-14.071,17.003-22.407,24.31
	c-0.798,0.699-1.591,1.408-2.364,2.136c-6.427,6.039-7.622,6.108-15.799,2.73c-7.801-3.222-13.411-9.089-18.953-15.042
	c-6.592-7.082-11.837-14.955-13.225-24.834C307.763,967.246,307.641,965.362,307.455,963.487z"/>
<path fill-rule="evenodd" clip-rule="evenodd" fill="#F88E84" d="M722.322,292.067c0.16,1.431-0.365,2.485-1.123,3.641
	c-7.851,11.972-17.746,22.268-27.079,33.015c-1.728,1.988-2.636,5.549-5.411,5.664c-3.693,0.153-7.404-1.398-10.782-2.965
	c-5.216-2.417-10.17-5.395-15.256-8.098c-11.721-6.23-23.067-13.099-34.417-19.969c-2.381-1.441-2.421-2.205-0.251-3.839
	c11.107-8.371,21.648-17.434,31.065-27.667c6.062-6.587,11.108-14.018,15.042-22.128c0.257-0.53,0.461-1.085,0.714-1.616
	c1.204-2.523,2.33-3.354,4.704-0.745c11.879,13.062,24.208,25.696,37.003,37.868c1.276,1.214,2.642,2.369,4.102,3.347
	C721.979,289.478,722.534,290.585,722.322,292.067z M693.319,291.266c0.093-10.631-8.22-18.904-19.061-18.971
	c-8.979-0.055-17.187,9.69-17.281,20.518c-0.077,8.873,8.464,16.063,19.248,16.204C685.842,309.142,693.23,301.469,693.319,291.266z
	"/>
<path fill-rule="evenodd" clip-rule="evenodd" fill="#F88E84" d="M646.965,241.067c6.246,0,12.497,0.144,18.736-0.061
	c3.091-0.102,2.771,1.288,1.82,3.12c-3.26,6.275-7.132,12.167-11.646,17.604c-8.246,9.93-17.957,18.344-27.812,26.601
	c-0.453,0.379-0.879,0.791-1.343,1.154c-1.269,0.992-2.339,3.442-3.668,2.83c-1.563-0.719-1.209-3.244-1.426-5.071
	c-0.73-6.197-1.398-12.408-2.375-18.568c-0.332-2.096,0.207-3.452,1.78-4.553c7.955-5.569,13.55-12.957,16.912-22.028
	c0.576-1.554,1.598-1.86,3-1.845c2.006,0.021,4.014,0.006,6.02,0.006C646.965,240.525,646.965,240.796,646.965,241.067z"/>
<path fill-rule="evenodd" clip-rule="evenodd" fill="#F88E84" d="M733.646,306.276c1.606,1.847-0.085,3.362-0.699,4.789
	c-3.116,7.232-7.889,13.275-13.71,18.559c-3.746,3.4-7.411,6.888-11.501,9.879c-2.146,1.569-6.885,0.851-8.303-1.278
	c-0.941-1.415,0.249-2.435,1.032-3.346c4.751-5.528,9.625-10.952,14.335-16.516c3.331-3.934,6.467-8.032,9.689-12.057
	c1.64-0.306,1.872-1.575,1.993-2.919c0,0-0.005,0-0.005,0c1.465,0,2.929,0,4.394-0.001l0.003,0.006
	C731.003,305.118,731.55,306.441,733.646,306.276z"/>
<path fill-rule="evenodd" clip-rule="evenodd" fill="#F88E84" d="M631.54,314.814c5.688,2.081,10.141,6.305,15.53,8.925
	c3.17,1.54,6.117,3.528,9.223,5.205c1.752,0.946,2.033,1.694,0.717,3.472c-2.234,3.016-4.105,6.312-6.007,9.562
	c-0.82,1.402-1.577,2.254-2.728,0.487c-5.885-9.032-12.306-17.745-16.714-27.671L631.54,314.814z"/>
<path fill-rule="evenodd" clip-rule="evenodd" fill="#F88E84" d="M691.861,248.353c6.212,2.985,12.421,5.977,18.638,8.951
	c2.532,1.211,5.038,2.494,7.642,3.532c1.859,0.741,2.386,1.642,1.354,3.454c-1.275,2.244-2.457,4.544-3.593,6.863
	c-0.607,1.242-1.222,1.221-2.109,0.33c-5.956-5.983-11.894-11.984-17.905-17.91c-1.53-1.506-3.307-2.763-4.97-4.134
	C691.231,249.077,691.547,248.715,691.861,248.353z"/>
<path fill-rule="evenodd" clip-rule="evenodd" fill="#F88E84" d="M617.783,254.942c-1.871-4.429-1.673-8.951-2.494-13.27
	c-0.238-1.26,0.345-2.003,1.763-1.979c3.187,0.052,6.375,0.115,9.56,0.045c2.222-0.05,1.975,1.136,1.316,2.438
	C625.467,247.049,622.23,251.311,617.783,254.942z"/>
<path fill-rule="evenodd" clip-rule="evenodd" fill="#EBAE84" d="M730.872,303.385c-1.465,0.001-2.929,0.001-4.394,0.001
	c0.278-1.145,0.561-2.596,1.902-2.584C729.735,300.814,730.547,302.025,730.872,303.385z"/>
<path fill-rule="evenodd" clip-rule="evenodd" fill="#EBAE84" d="M733.646,306.276c-2.097,0.166-2.644-1.158-2.771-2.884
	C732.388,303.788,733.307,304.754,733.646,306.276z"/>
<path fill-rule="evenodd" clip-rule="evenodd" fill="#EBAE84" d="M726.483,303.387c-0.121,1.344-0.354,2.613-1.993,2.919
	C724.722,305.037,725.025,303.817,726.483,303.387z"/>
<path fill-rule="evenodd" clip-rule="evenodd" fill="#F88E84" d="M631.562,314.794c-0.076-0.046-0.152-0.093-0.229-0.14
	c0.07,0.053,0.14,0.106,0.208,0.16L631.562,314.794z"/>
<path fill-rule="evenodd" clip-rule="evenodd" fill="#F9F5F3" d="M693.319,291.266c-0.089,10.203-7.478,17.876-17.094,17.751
	c-10.784-0.141-19.325-7.332-19.248-16.204c0.095-10.828,8.303-20.573,17.281-20.518C685.1,272.361,693.412,280.634,693.319,291.266
	z M676.471,299.823c4.658,0.04,8.232-3.987,8.188-9.225c-0.042-4.897-4.994-9.631-10.272-9.817
	c-3.279-0.116-8.646,7.265-8.714,11.984C665.621,296.395,670.794,299.775,676.471,299.823z"/>
<path fill-rule="evenodd" clip-rule="evenodd" fill="#F88E84" d="M676.471,299.823c-5.677-0.048-10.85-3.429-10.798-7.057
	c0.068-4.719,5.435-12.1,8.714-11.984c5.278,0.186,10.23,4.919,10.272,9.817C684.703,295.836,681.129,299.863,676.471,299.823z"/>
</svg>
