<?xml version="1.0" encoding="utf-8"?>
<!-- Generator: Adobe Illustrator 16.0.0, SVG Export Plug-In . SVG Version: 6.00 Build 0)  -->
<!DOCTYPE svg PUBLIC "-//W3C//DTD SVG 1.0//EN" "http://www.w3.org/TR/2001/REC-SVG-20010904/DTD/svg10.dtd">
<svg version="1.0" id="Layer_1" xmlns="http://www.w3.org/2000/svg" xmlns:xlink="http://www.w3.org/1999/xlink" x="0px" y="0px"
	 width="900.09px" height="1200px" viewBox="0 0 900.09 1200" enable-background="new 0 0 900.09 1200" xml:space="preserve">
<path fill-rule="evenodd" clip-rule="evenodd" fill="#040404" d="M177.947,762.855c-0.927-3.797,1.409-6.022,2.327-8.688
	c1.444-4.195,0.507-7.36-2.594-10.311c-7.333-6.976-16.025-12.223-23.702-18.736c-9.83-8.343-21.216-14.445-31.346-22.356
	c-11.965-9.344-22.098-20.458-31.926-31.9c-22.99-26.767-39.36-57.485-53.06-89.722c-8.99-21.154-15.669-43.12-20.659-65.534
	c-3.596-16.154-5.781-32.58-7.105-49.097c-0.984-12.267-1.765-24.543-1.461-36.858c0.433-17.52,1.923-34.97,4.535-52.287
	c5.262-34.888,15.479-68.399,30.158-100.411c17.219-37.549,39.788-71.654,67.531-102.408c26.679-29.573,57.139-54.54,90.61-75.831
	c20.952-13.327,43.26-24.258,66.188-33.838c17.98-7.513,36.514-13.343,55.323-18.431c18.874-5.105,37.923-9.108,57.312-11.642
	c25.936-3.39,51.948-5.13,78.094-4.003c13.202,0.569,26.368,1.592,39.52,3.134c12.988,1.522,25.926,3.32,38.679,6.044
	c15.093,3.224,30.005,7.271,44.781,11.811c23.666,7.271,46.348,16.836,68.449,27.949c20.79,10.453,40.586,22.462,59.392,36.146
	c27.879,20.285,52.927,43.579,75.201,69.915c23.779,28.115,42.947,59.122,58.322,92.482c7.666,16.634,13.663,33.93,18.796,51.534
	c2.648,9.081,5.073,18.202,7.036,27.443c3.125,14.717,5.2,29.595,6.534,44.58c0.937,10.527,1.666,21.06,1.677,31.642
	c0.021,19.995-1.837,39.808-4.625,59.605c-2.91,20.658-8.072,40.718-14.426,60.506c-8.494,26.458-20.019,51.566-34.013,75.58
	c-13.882,23.824-30.067,45.923-48.565,66.355c-1.006,1.11-3.206,2.313-1.178,4.301c1.796,1.761,3.505,3.793,6.592,2.22
	c7.789-3.97,15.551-8.015,23.491-11.664c16.107-7.404,32.455-14.324,49.729-18.496c8.869-2.142,18.029-3.244,26.892,0.806
	c9.589,4.383,13.845,12.198,14.224,22.336c0.429,11.497-3.345,22.149-7.728,32.463c-10.599,24.94-26.472,46.483-44.224,66.721
	c-12.247,13.962-25.176,27.231-40.23,38.241c-1.515,1.108-1.9,2.32-1.762,4.124c1.204,15.625,1.974,31.258,2.001,46.949
	c0.025,14.942-1.368,29.573-5.699,43.918c-4.47,14.799-8.76,29.652-15.461,43.653c-13.801,28.836-33.142,53.167-58.947,72.197
	c-1.792,1.321-2.293,2.409-1.804,4.832c1.43,7.089-1.238,13.723-3.552,20.221c-8.977,25.207-22.155,48.046-40.125,67.882
	c-13.034,14.388-27.583,27.1-45.658,34.984c-9.789,4.27-19.876,7.534-30.82,6.536c-10.349-0.942-16.86-6.808-20.603-16.158
	c-4.092-10.227-3.717-21.127-4.636-31.815c-0.704-8.196-1.094-16.423-1.505-24.643c-0.113-2.232-0.51-2.809-2.829-1.78
	c-7.386,3.273-15.374,4.108-23.282,4.931c-16.275,1.69-32.628,2.326-48.962,3.216c-29.033,1.582-58.08,0.274-87.118,0.478
	c-2.764,0.02-5.541-0.153-8.29-0.448c-2.394-0.257-3.31,0.405-3.133,2.991c0.991,14.491-1.559,28.368-8.59,41.109
	c-8.576,15.541-21.924,23.448-39.784,21.8c-14.395-1.328-26.754-8.004-37.285-17.72c-19.276-17.784-34.115-38.906-45.445-62.474
	c-6.993-14.547-14.24-28.998-19.592-44.277c-0.198-0.563-0.408-1.087-1.005-1.329c-10.503-4.252-16.989-12.981-23.369-21.59
	c-9.996-13.488-19.029-27.64-24.989-43.444c-5.831-15.462-10.223-31.345-12.812-47.707c-0.993-6.273-2.356-12.483-2.789-18.844
	c-0.087-1.279-0.116-2.91-2.021-3.172c-10.466-1.442-18.063-8.098-25.509-14.629c-18.896-16.573-36.24-34.638-49.888-55.889
	c-9.765-15.205-18.495-31.031-23.831-48.395c-3.631-11.816-4.454-23.969-0.392-35.913c4.811-14.15,15.118-21.179,28.98-22.059
	c12.284-0.78,23.829,1.967,34.093,9.396c6.358,4.602,13.862,7.241,20.777,10.901C170.205,762.057,174.014,760.793,177.947,762.855z
	 M275.33,393.187l0.005-0.003c-0.614-0.031-1.08,0.191-1.328,0.781c-0.728,0.085-1.208,0.509-1.543,1.129
	c-1.024,0.089-1.701,0.667-2.166,1.541c-0.236-0.028-0.38,0.074-0.432,0.306c-0.767,0.046-1.335,0.345-1.492,1.169l0.013-0.014
	c-0.772,0.136-1.346,0.542-1.701,1.248c-0.748,0.312-1.421,0.716-1.813,1.467c-2.598,1.361-4.544,3.536-6.546,5.561
	c-5.014,5.073-10.012,10.201-13.021,16.842c-0.115,0.199-0.229,0.397-0.344,0.596c-6.035,9.176-9.143,19.361-10.401,30.183
	c-0.046,0.922-0.091,1.845-0.137,2.767c-0.767,1.31-0.948,2.712-0.666,4.188c-0.412,4.621-0.428,9.243,0.016,13.863
	c-0.25,1.463-0.167,2.878,0.599,4.197c0.096,1.847,0.193,3.694,0.289,5.541c-0.166,0.771-0.214,1.52,0.438,2.123
	c0.16,1.633,0.319,3.266,0.478,4.899c-0.325,0.74-0.294,1.389,0.476,1.847c0.072,0.314,0.144,0.627,0.216,0.941
	c-0.308,0.497-0.216,0.961,0.111,1.408c0.096,1.146,0.192,2.291,0.288,3.436c0.067,0.871-0.101,1.853,1.049,2.21
	c0.811,0.724,1.741,1.178,2.837,1.256c0.946,0.982,1.394,0.639,1.516-0.57c0.198-0.218,0.396-0.437,0.594-0.655
	c0.843-0.479,1.187-1.28,1.396-2.167c4.631-6.378,9.38-12.654,14.671-18.518c15.405-17.07,33.759-30.211,54.122-40.652
	c2.821-1.446,4.403-3.001,3.237-6.341c-0.924-2.647-0.92-5.471-1.176-8.237c-1.554-16.835-1.091-33.563,2.642-50.12
	c0.489-2.172,0.879-4.366,1.44-7.174c-3.597,2.154-6.505,4.001-9.51,5.674c-9.239,5.145-18.514,10.224-27.775,15.328
	c-2.082,0.398-3.587,1.771-5.148,3.047l-0.08,0.051C275.887,392.331,275.522,392.642,275.33,393.187z M274.6,507.007
	c-0.098,0.132-0.124,0.278-0.08,0.437c-0.839,0.578-1.579,1.229-1.735,2.317c-0.221,0.057-0.321,0.199-0.299,0.427
	c-4.693,5.25-8.228,11.219-10.99,17.67c-0.184,0.107-0.24,0.262-0.168,0.462c-1.072,0.737-1.564,1.843-1.921,3.033
	c-0.283,0.394-0.566,0.788-0.849,1.182c-0.751,0.285-1.108,0.855-1.186,1.63c-1.165,1.706-2.379,3.381-3.484,5.124
	c-5.355,8.443-8.338,17.993-12.569,26.96c-3.788,8.029-7.669,16.005-10.633,24.387c-0.923,0.53-0.945,1.53-1.243,2.386
	c-3.925,11.308-5.392,23.21-8.41,34.736c-1.739,6.639-1.78,13.577-3.275,20.187c-2.971,13.139-4.994,26.376-6.083,39.767
	c-0.393,4.83-0.672,9.706,0.156,14.545c-0.576,6.515,0.074,13.003,0.806,19.444c0.384,3.394,1.544,6.912,4.941,8.658
	c8.197,4.212,16.157,8.963,25.091,11.579c12.292,3.6,24.534,7.338,36.947,10.552c11.669,3.02,23.398,5.665,35.303,7.311
	c12.406,1.715,24.905,2.65,37.433,3.374c38.623,2.229,77.029,0.65,115.256-5.351c20.7-3.249,41.302-6.995,61.798-11.362
	c23.755-5.061,47.151-11.438,70.47-18.203c25.983-7.54,51.456-16.606,77.151-25.008c5.254-1.718,10.642-3.142,14.199-7.944
	c0.583-0.787,1.666-1.219,2.55-1.764c3.853-2.378,8.103-3.899,12.301-5.485c1.607-0.607,2.15-1.526,2.256-3.047
	c0.372-5.363,0.024-10.698-1.098-15.934c-2.376-11.095-5.667-21.91-9.869-32.476c-8.968-22.54-17.782-45.133-30.125-66.138
	c-8.445-14.373-16.196-29.228-26.906-42.097c-9.857-11.845-19.574-23.907-31.591-33.73c-13.977-11.426-28.481-22.109-43.945-31.509
	c-11.43-6.947-23.438-12.101-36.61-14.452c-8.428-1.505-16.87-2.934-25.306-4.392c-12.417-2.146-24.694-5.087-37.423-5.225
	c-12.677-0.138-25.296,0.974-37.955,1.223c-7.021,0.137-14.001,1.722-21.026,2.379c-8.211,0.768-16.139,2.982-24.224,4.379
	c-6.948,1.2-14.144,1.731-20.756,3.963c-15.078,5.092-29.786,11.248-43.526,19.408c-11.661,6.924-22.858,14.508-32.255,24.443
	c-1.689,1.239-3.137,2.72-4.403,4.384c-2.162,2.066-4.775,3.774-5.523,6.962l-0.088,0.071
	C274.907,505.874,274.702,506.363,274.6,507.007z M640.895,400.806l0.021,0.017c-0.478-1.374-1.7-1.681-2.896-2.026
	c-0.627-0.5-1.216-1.056-1.885-1.492c-14.565-9.487-30.577-16.126-46.215-23.509c-5.789-2.732-11.461-5.714-17.187-8.581
	c-0.242-0.871-0.846-1.203-1.709-1.146c-0.45-0.28-0.899-0.56-1.348-0.841c-0.621-1.199-1.752-1.607-3.094-2.166
	c0.33,1.752,0.78,3.103,2.129,3.972c2.653,4.569,5.217,9.283,8.997,12.977c9.369,9.156,16.094,20.001,21.197,31.931
	c5.208,12.179,7.775,24.692,4.232,37.875c-0.527,1.962-0.088,3.372,1.86,4.626c6.239,4.019,11.922,8.792,17.583,13.588
	c9.051,7.667,16.323,17.071,24.897,25.207c10.024,9.511,19.544,19.501,27.829,30.607c2.695,3.611,8.76,5.14,12.83,3.329
	c1.098-0.488,1.921-1.161,2.292-2.41c1.979-6.655,3.749-13.317,4.071-20.332c0.491-10.656-0.983-21.017-4.012-31.193
	c-3.738-12.572-8.714-24.586-16.139-35.484c0.066-0.908-0.347-1.493-1.2-1.782c-0.24-0.38-0.48-0.76-0.721-1.141
	c-0.109-0.964-0.516-1.724-1.461-2.105c-7.17-11.147-16.577-20.107-27.224-27.857l-0.152,0.169l0.146-0.174
	C643.124,401.718,642.118,401.112,640.895,400.806z M483.226,905.826l0.019-0.017c-3.582-0.514-2.885,2.382-3.421,4.294l0.034-0.017
	c-1.945-0.434-3.401,0.104-4.029,2.123c-0.318,1.021-1.202,1.519-1.795,2.245c-2.036,2.494-5.908,2.979-6.937,6.473l-0.153,0.107
	c-3.166-0.16-5.278,1.428-6.756,4.069c-1.206,0.868-0.852,2.024-0.579,3.161c3.54,14.723,6.946,29.479,10.661,44.157
	c4.085,16.141,8.364,32.235,13.396,48.116c2.832,8.938,5.49,17.939,8.646,26.762c3.234,9.039,7.034,17.876,10.484,26.841
	c1.774,4.61,2.167,4.909,7.093,4.457c9.575-0.88,19.143-2.13,28.738-2.425c13.326-0.41,26.112-3.559,38.954-6.518
	c13.313-3.067,26.508-6.597,39.703-10.154c12.428-3.352,24.428-7.817,36.426-12.328c12.06-4.535,23.502-10.386,34.653-16.853
	c20.441-11.855,37.729-27.183,51.439-46.426c12.961-18.19,20.751-38.781,26.377-60.147c3.644-13.837,6.513-27.868,8.104-42.198
	c1.46-13.165,1.253-26.175-0.534-39.157c-2.853-20.722-10.271-40.372-14.885-60.69c-0.563-2.478-1.595-2.021-3.033-0.72
	c-1.884,1.704-3.765,3.432-5.795,4.951c-10.929,8.17-22.095,15.944-33.883,22.897c-7.356,4.339-14.826,8.397-22.444,12.191
	c-14.89,7.417-30.193,13.937-45.597,20.19c-5.22,2.119-10.236,4.887-15.869,5.938c-2.245-0.148-4.374,0.708-6.233,1.584
	c-2.96,1.395-6.696,1.046-8.978,3.925l-0.124,0.053c-5.419-0.905-9.702,2.644-14.609,3.771c-3.517,0.809-6.865,2.852-10.372,3.082
	c-5.097,0.335-9.443,2.954-14.596,3.41c-6.85,0.605-13.506,3.341-20.261,5.1c-7.578,1.976-15.411,2.726-23.098,3.927
	c-8.615,1.347-17.025,3.834-25.738,4.522c-0.839,0.065-1.207,0.565-1.329,1.329c-0.423,0.027-0.845,0.056-1.268,0.084
	c-1.74-0.019-3.481,0.009-5.219-0.063c-3.479-0.144-6.849,0.037-9.518,2.711l-0.096,0.11c-0.085,0.051-0.244,0.107-0.241,0.151
	c0.012,0.165,0.078,0.327,0.123,0.489c-0.006,0.71-0.013,1.42-0.019,2.13c-2.167,0.779-1.875,2.659-1.879,4.345
	c-0.007,2.762-0.004,5.707-1.416,7.983c-1.415,2.282-2.261,4.458-2.138,7.074l-0.095,0.066
	C483.645,903.332,483.368,904.535,483.226,905.826z M714.58,475.913c0.298,1.017-0.266,2.221,0.672,3.099
	c1.844,7.655,2.074,15.491,2.188,24.103c1.519-1.388,2.475-2.155,3.307-3.039c7.582-8.058,14.264-16.824,19.717-26.436
	c15.105-26.626,21.131-55.724,22.064-85.926c0.861-27.855-4.158-54.934-13.497-81.143c-13.343-37.447-35.115-68.843-68.051-91.688
	c-20.634-14.313-43.238-22.185-68.833-17.646c-11.635,2.064-22.166,6.494-30.651,15.038c-10.02,10.09-16.557,22.294-20.636,35.716
	c-6.928,22.794-8.721,46.166-6.552,69.861c0.118,1.289,0.454,2.54,1.247,3.57c5.536,7.19,11.495,13.921,18.95,19.278
	c11.696,8.404,25.095,13.361,38.037,19.243c14.239,6.472,28.346,13.178,41.164,22.257c22.152,15.69,38.983,35.836,50.267,60.542
	c3.184,6.971,5.816,14.163,7.222,21.743c0.042,0.142,0.099,0.28,0.167,0.412c0.215,0.168,0.429,0.335,0.644,0.504
	c0.407,3.5,1.185,6.909,2.516,10.181l0.159,0.143L714.58,475.913z M186.656,658.882c0.208-0.65,0.552-1.29,0.602-1.952
	c0.798-10.625,2.878-21.051,4.798-31.503c0.078-0.7,0.156-1.399,0.234-2.099c0.421-0.381,0.616-0.826,0.401-1.391
	c0.479-2.397,1.401-4.712,1.355-7.209c0.641-0.729,0.938-1.572,0.834-2.546c0.084-0.694,0.168-1.388,0.251-2.083
	c0.154-0.469,0.309-0.938,0.463-1.406c2.426-9.039,4.626-18.145,7.335-27.097c3.171-10.479,6.169-21.018,10.237-31.221
	c3.301-8.279,8.076-15.783,11.917-23.771c0.814-1.694,0.733-2.274-1.042-3.068c-11.888-5.316-22.315-12.827-31.356-22.117
	c-29.817-30.641-45.393-67.872-49.114-110.033c-2.685-30.418,1.767-60.107,12.373-88.828c10.699-28.972,25.931-55.338,45.708-79.006
	c19.169-22.942,42.914-39.693,70.647-50.825c14.885-5.975,30.219-10.353,46.198-11.872c21.021-1.999,41.424,1.044,60.84,9.431
	c9.818,4.241,19.888,8.176,26.718,17.324c5.471,7.327,11.143,14.453,15.058,22.808c1.752,3.738,1.832,7.779,2.813,11.646
	c3.581,14.116,2.283,27.534-5.248,40.202c-6.36,10.698-15.117,19.354-23.729,28.134c-11.784,12.015-23.453,24.102-33.127,37.984
	c-1.593,2.285-1.227,4.914-2.938,7.103c-5.173,6.619-11.032,12.879-13.476,21.227c-0.64,2.184-2.216,4.328-0.841,7.361
	c2.414-3.653,5.88-4.42,9.51-4.859c6.337-0.768,12.663-1.639,19.011-2.301c1.821-0.19,2.542-0.972,3.053-2.632
	c3.793-12.339,11.568-21.278,22.812-27.648c23.861-13.518,58.071-5.406,68.614,21.808c0.955,2.468,2.256,3.006,4.72,2.732
	c4.612-0.513,9.266-0.953,13.898-0.908c8.406,0.08,14.443,7.548,10.261,15.438c-2.164,4.082-5.757,5.575-9.983,5.942
	c-4.974,0.433-9.963,0.767-14.952,0.911c-1.988,0.058-2.836,0.849-3.428,2.625c-4.806,14.419-14.948,23.652-28.735,29.254
	c-1.173,0.477-2.73,0.432-2.429,2.25c0.282,1.707,1.855,1.567,3.064,1.641c6.375,0.389,12.753,0.979,19.132,0.988
	c22.136,0.033,43.792,3.159,65.233,8.657c19.111,4.901,37.755,10.928,55.588,19.396c0.857,0.407,1.929,1.667,2.734,0.704
	c0.791-0.945,0.542-2.491-0.187-3.607c-1.455-2.228-3.084-4.342-4.543-6.568c-6.469-9.865-12.086-20.287-19.18-29.738
	c-18.618-24.805-27.412-53.085-29.42-83.668c-0.983-14.964-0.415-29.899,1.694-44.821c2.302-16.276,6.214-31.984,13.446-46.791
	c11.754-24.065,29.261-41.393,55.907-48.333c18.452-4.806,36.779-4.223,54.957,0.882c16.54,4.645,31.489,12.752,45.218,22.961
	c27.679,20.582,47.977,47.299,62.82,78.129c12.354,25.658,19.31,52.968,22.406,81.274c2.262,20.667,1.711,41.266-1.483,61.776
	c-2.843,18.253-7.835,35.914-15.519,52.762c-9.965,21.847-24.271,40.402-42.188,56.335c-8.463,7.528-18.607,12.524-27.642,19.186
	c-2.93,2.161-2.839,3.393-1.175,6.185c12.382,20.767,21.639,42.959,29.409,65.791c6.714,19.728,12.246,39.785,16.246,60.249
	c0.345,1.762,1.062,2.988,3.081,3.175c1.131,0.104,2.37,0.33,3.314,0.906c2.536,1.546,4.117,0.536,5.886-1.413
	c21.576-23.797,40.059-49.745,55.196-78.11c17.394-32.593,29.377-67.044,36.362-103.283c3.852-19.982,5.696-40.186,6.27-60.486
	c0.426-15.094-0.83-30.132-2.47-45.159c-1.436-13.146-3.31-26.211-6.311-39.053c-4.418-18.894-10.191-37.416-17.489-55.416
	c-15.904-39.23-37.896-74.712-65.775-106.573c-30.865-35.273-66.929-64.081-107.834-86.854
	c-18.594-10.352-37.808-19.469-57.786-26.808c-21.163-7.774-42.835-13.826-64.906-18.574c-13.512-2.907-27.16-4.748-40.829-6.352
	c-10.352-1.215-20.814-1.621-31.244-2.223c-27.034-1.56-53.827,0.899-80.554,4.268c-15.271,1.925-30.29,5.351-45.208,9.265
	c-24.51,6.431-48.332,14.617-71.442,25.084c-40.8,18.48-77.641,42.91-110.355,73.36c-30.07,27.989-55.132,60.016-74.985,96.124
	c-15.749,28.645-27.116,58.897-35.078,90.506c-3.2,12.705-5.136,25.631-6.857,38.62c-2.08,15.698-3.064,31.452-2.9,47.239
	c0.195,18.792,1.932,37.473,4.983,56.066c2.274,13.858,5.471,27.445,9.375,40.894c8.453,29.115,20.336,56.75,35.773,82.859
	c6.717,11.359,13.614,22.529,22.474,32.446c21.44,24.001,47.243,42.234,75.121,57.833c2.7,1.511,3.16,0.33,3.376-1.997
	c0.579-6.232,1.599-12.45,1.752-18.69c0.175-7.078,1.668-14.081,1.053-21.187c0.209-0.807,1.867-1.507,0.181-2.453
	C187.235,662.611,186.429,660.644,186.656,658.882z M205.652,782.701c-0.513,14.084,0.545,26.953,0.902,39.843
	c0.095,3.444,2.312,5.443,5.242,6.565c16.333,6.252,33.278,10.454,50.287,14.265c15.663,3.509,31.364,7.037,47.304,9.064
	c12.046,1.532,24.072,3.489,36.276,3.558c5.224,0.029,10.471-0.275,15.66,0.539c1.544,0.243,2.33-0.542,3.226-1.521
	c3.865-4.22,8.216-7.853,13.19-10.719c10.158-5.853,21.037-9.268,32.71-10.705c13.607-1.676,26.856-0.382,39.837,3.622
	c12.253,3.779,22.178,11.321,31.017,20.399c0.92,0.945,1.717,1.715,3.25,1.525c10.005-1.233,20.068-2.07,30.022-3.618
	c16.91-2.628,33.795-5.398,50.49-9.301c16.218-3.792,32.264-8.082,47.967-13.627c22.92-8.093,45.175-17.765,67.311-27.783
	c24.745-11.199,46.337-27.438,68.982-42.007c5.031-3.237,8.401-7.439,9.07-13.589c0.354-3.256,0.52-6.538,0.092-9.732
	c-0.972-7.248-2.016-14.558-8.649-19.355c-1.111-0.804-1.278-2.427-3.298-2.579c-5.809-0.439-11.457-0.499-17.154,1.251
	c-14.826,4.555-29.757,8.884-43.924,15.217c-26.846,12-54.834,20.467-83.313,27.321c-21.147,5.091-42.198,10.588-63.49,15.103
	c-13.923,2.954-27.855,5.855-41.863,8.333c-13.462,2.381-26.987,4.417-40.562,6.127c-18.664,2.352-37.341,4.438-56.176,4.556
	c-15.568,0.097-31.116-0.142-46.685-0.932c-26.013-1.32-51.79-3.914-77.005-10.71c-18.257-4.922-35.864-11.564-52.836-19.944
	c-4.849-2.394-9.33-5.596-14.717-6.919c-2.432-0.599-3.265-0.137-3.216,2.525C205.747,767.605,205.652,775.741,205.652,782.701z
	 M422.755,1080.842c2.815,0,4.907,0.03,6.996-0.009c1.868-0.035,2.836-0.599,1.985-2.792c-5.736-14.782-10.522-29.885-14.576-45.201
	c-3.25-12.287-6.281-24.641-9.014-37.052c-1.789-8.122-2.93-16.391-4.259-24.609c-1.96-12.122-3.792-24.274-4.192-36.559
	c-0.096-2.958-1.168-3.937-3.683-4.715c-10.375-3.206-19.82-7.921-28.066-15.331c-10.056-9.039-15.177-19.939-15.056-33.315
	c0.025-2.745-0.922-3.354-3.392-3.377c-8.537-0.079-17.043-0.898-25.589-1.137c-14.102-0.391-28.154-2.459-42.109-4.843
	c-10.59-1.808-21.055-4.209-31.503-6.646c-13.033-3.041-25.806-7.009-38.159-12.216c-3.255-1.372-3.84-1.073-3.759,2.407
	c0.338,14.387,2.193,28.694,2.273,43.099c0.018,3.118,0.242,6.291,0.854,9.341c2.841,14.171,5.198,28.438,8.83,42.452
	c3.788,14.617,8.531,28.888,15.323,42.367c8.877,17.616,20.364,33.232,36.2,45.384c10.769,8.263,21.757,16.099,34.23,21.676
	c14.589,6.522,30.114,9.841,45.59,13.137c8.687,1.85,17.57,2.951,26.419,4.111C393.179,1078.992,408.326,1079.829,422.755,1080.842z
	 M213.216,484.903c0.087-0.883,0.171-1.299,0.16-1.712c-0.026-0.928-0.036-1.864-0.161-2.781c-1.79-13.132-0.961-26.092,2-39.013
	c5.049-22.036,16.518-40.027,33.46-54.784c12.194-10.621,26.211-18.28,40.681-25.114c22.781-10.759,40.833-26.844,55.073-47.445
	c3.962-5.732,8.313-11.164,12.865-16.442c11-12.757,23.269-24.307,34.741-36.614c8.364-8.973,13.918-18.997,12.505-31.871
	c-0.805-7.343-2.7-13.487-9.48-18.102c-11.662-7.94-23.592-14.902-37.241-18.943c-15.607-4.622-31.254-4.946-47.098-2.009
	c-13.486,2.499-26.271,7.136-38.585,13.08c-20.484,9.888-37.771,23.788-51.962,41.577c-15.206,19.061-27.442,39.846-36.431,62.512
	c-6.384,16.098-10.875,32.751-12.635,49.969c-1.522,14.896-1.73,29.835,0.822,44.753c2.472,14.446,6.512,28.348,12.178,41.845
	c1.428,3.401,2.674,5.521,6.438,2.726c0.416-0.309,1.116-0.269,1.69-0.325c4.153-0.401,7.955,1.892,9.437,5.675
	c1.625,4.147,0.502,8.542-3.375,11.017c-2.303,1.471-2.272,2.521-0.688,4.395c2.017,2.387,3.709,5.052,5.758,7.408
	C206.363,478.151,209.144,481.839,213.216,484.903z M798.438,809.91c13.791-13.112,26.491-26.458,38.036-40.856
	c12.351-15.402,23.646-31.491,31.033-49.995c2.619-6.559,4.928-13.196,6.162-20.177c1.042-5.895-0.652-8.039-6.462-8.091
	c-6.949-0.063-13.529,1.957-19.97,4.085c-21.852,7.22-42.644,16.955-63.18,27.269c-1.83,0.918-2.74,1.868-2.327,3.947
	c1.326,6.681,2.695,13.335,3.251,20.167c0.387,4.755,1.29,9.521,2.146,14.215c1.616,8.854,3.871,17.611,6.25,26.303
	C795.421,794.241,796.251,801.96,798.438,809.91z M468.895,1080.978c-0.001-0.406-0.001-0.812-0.002-1.217
	c5.682,0,11.365,0.053,17.046-0.017c4.244-0.053,4.239-0.12,2.651-3.908c-8.389-20-15.447-40.482-21.845-61.189
	c-4.599-14.886-8.71-29.924-12.116-45.125c-2.776-12.391-6.25-24.686-6.765-37.484c-0.084-2.1-0.921-1.742-2.38-1.441
	c-10.007,2.064-20.059,3.847-30.343,2.607c-2.591-0.313-2.324,1.372-2.116,2.812c1.288,8.923,2.548,17.854,4.042,26.744
	c3.176,18.91,6.726,37.753,11.479,56.34c5.173,20.23,11.236,40.185,18.943,59.617c0.675,1.702,1.517,2.319,3.302,2.294
	C456.823,1080.925,462.858,1080.978,468.895,1080.978z M701.009,1057.818c-1.346,0.673-1.975,0.956-2.575,1.293
	c-25.447,14.254-52.73,23.825-80.739,31.493c-8.579,2.349-17.271,4.276-25.91,6.408c-1.904,0.471-3.084,0.827-2.344,3.65
	c1.253,4.779,1.739,9.794,2.197,14.742c0.822,8.89,1.265,17.815,2.11,26.703c0.393,4.126,0.833,8.295,2.393,12.228
	c1.874,4.73,4.318,6.438,9.318,5.92c5.525-0.573,10.818-2.141,15.978-4.213c16.311-6.554,29.082-17.915,40.858-30.464
	c12.138-12.935,21.448-27.88,29.341-43.699C695.381,1074.372,698.61,1066.625,701.009,1057.818z M181.321,891.231
	c-0.98-13.032-0.265-24.98-0.83-36.916c-0.922-19.482-1.909-38.964-2.557-58.455c-0.107-3.209-1.058-4.764-3.881-5.793
	c-2.039-0.743-3.913-1.932-5.873-2.896c-13.764-6.775-27.165-14.361-41.863-19.059c-4.515-1.442-9.125-2.62-14-1.683
	c-2.353,0.454-3.775,1.769-4.397,3.916c-0.671,2.32-1.292,4.636-1.244,7.142c0.182,9.43,2.474,18.405,6.412,26.837
	c11.347,24.294,25.279,46.845,45.036,65.408C165.537,876.697,172.755,883.862,181.321,891.231z M277.819,1072.036
	c-0.096,0.622-0.225,0.88-0.148,1.044c10.104,21.663,21.561,42.474,37.625,60.442c6.979,7.807,14.098,15.364,23.522,20.34
	c6.494,3.428,13.294,5.349,20.659,4.537c7.965-0.878,12.831-6.077,16.177-12.705c6.208-12.301,7.113-25.484,5.487-38.93
	c-0.459-3.804-4.702-7.3-9.059-7.801c-9.548-1.097-18.98-2.835-28.393-4.759C320.894,1089.549,298.743,1083.018,277.819,1072.036z
	 M420.521,852.866c-2.342-0.407-5.841,0.724-9.391,1.186c-12.63,1.641-23.978,6.052-32.661,15.84
	c-6.707,7.56-6.854,17.771-0.611,25.756c5.666,7.247,13.377,11.361,21.84,14.111c12.851,4.175,25.981,4.584,39.111,1.463
	c9.574-2.276,18.363-6.136,25.313-13.552c9.27-9.89,8.011-22.879-2.617-31.439C449.819,856.816,436.343,853.539,420.521,852.866z
	 M342.273,372.034c-0.954,0.498-1.047,1.176-1.217,1.864c-1.444,5.848-2.68,11.731-3.461,17.711
	c-1.467,11.224-1.449,22.438-0.158,33.676c0.292,2.542,1.323,2.671,3.461,1.878c5.517-2.046,11.065-4.032,16.687-5.762
	c15.058-4.634,30.345-8.227,46.019-10.167c3.629-0.449,7.116-2.046,10.669-3.115c-5.158-1.688-10.242-2.679-14.9-5.017
	c-9.874-4.955-17.473-12.123-21.782-22.479c-0.568-1.364-0.861-2.795-3.091-2.442c-5.267,0.833-10.6,1.244-15.871,2.055
	C349.876,381.583,346.351,379.919,342.273,372.034z M421.136,388.424c9.903,0.119,17.919-4.468,23.01-9.824
	c8.203-8.628,9.3-22.358,0.149-31.184c-11.742-11.325-33.465-10.26-43.985,2.319c-5.839,6.982-8.394,14.74-4.649,23.45
	C400.429,384.273,409.836,388.058,421.136,388.424z"/>
<path fill-rule="evenodd" clip-rule="evenodd" fill="#DFF2F8" d="M194.047,614.729c0.046,2.497-0.876,4.812-1.355,7.209
	c-0.827,0.264-1.285,0.633-0.401,1.391c-0.078,0.699-0.156,1.398-0.234,2.099c-1.053,0.215-0.945,1.111-1.16,1.872
	c-1.574,5.565-3.774,10.865-4.577,16.766c-0.695,5.109,0.004,9.893,0.337,14.817c-0.227,1.762,0.579,3.729-1.041,5.21
	c-0.517,0.783-0.309,1.622-0.182,2.455c0.615,7.105-0.877,14.108-1.053,21.187c-0.154,6.24-1.173,12.458-1.752,18.69
	c-0.216,2.327-0.677,3.508-3.376,1.997c-27.878-15.599-53.681-33.832-75.121-57.833c-8.859-9.917-15.757-21.087-22.474-32.446
	c-15.438-26.109-27.321-53.744-35.773-82.859c-3.904-13.449-7.101-27.036-9.375-40.894c-3.051-18.593-4.788-37.274-4.983-56.066
	c-0.164-15.787,0.82-31.541,2.9-47.239c1.722-12.989,3.657-25.916,6.857-38.62c7.962-31.609,19.329-61.862,35.078-90.506
	c19.853-36.108,44.915-68.135,74.985-96.124c32.714-30.45,69.555-54.88,110.355-73.36c23.11-10.467,46.932-18.654,71.442-25.084
	c14.918-3.915,29.937-7.34,45.208-9.265c26.727-3.369,53.52-5.827,80.554-4.268c10.43,0.602,20.892,1.008,31.244,2.223
	c13.669,1.604,27.316,3.445,40.829,6.352c22.07,4.748,43.743,10.8,64.906,18.574c19.979,7.339,39.192,16.456,57.786,26.808
	c40.905,22.774,76.969,51.581,107.834,86.854c27.88,31.861,49.871,67.343,65.775,106.573c7.298,18,13.071,36.522,17.489,55.416
	c3.001,12.842,4.875,25.907,6.311,39.053c1.64,15.027,2.896,30.064,2.47,45.159c-0.573,20.301-2.418,40.504-6.27,60.486
	c-6.985,36.239-18.969,70.69-36.362,103.283c-15.138,28.365-33.62,54.313-55.196,78.11c-1.769,1.949-3.35,2.959-5.886,1.413
	c-0.944-0.576-2.184-0.803-3.314-0.906c-2.02-0.187-2.736-1.413-3.081-3.175c-4-20.464-9.532-40.521-16.246-60.249
	c-7.771-22.832-17.027-45.024-29.409-65.791c-1.664-2.792-1.755-4.024,1.175-6.185c9.034-6.662,19.179-11.658,27.642-19.186
	c17.916-15.933,32.223-34.488,42.188-56.335c7.684-16.848,12.676-34.508,15.519-52.762c3.194-20.51,3.745-41.108,1.483-61.776
	c-3.097-28.306-10.052-55.616-22.406-81.274c-14.844-30.831-35.142-57.547-62.82-78.129c-13.729-10.209-28.678-18.316-45.218-22.961
	c-18.178-5.104-36.505-5.688-54.957-0.882c-26.646,6.939-44.153,24.268-55.907,48.333c-7.232,14.806-11.144,30.515-13.446,46.791
	c-2.109,14.922-2.677,29.857-1.694,44.821c2.008,30.583,10.803,58.863,29.42,83.668c7.093,9.452,12.71,19.874,19.18,29.738
	c1.459,2.226,3.089,4.34,4.543,6.568c0.729,1.117,0.978,2.662,0.187,3.607c-0.805,0.962-1.876-0.297-2.734-0.704
	c-17.833-8.468-36.477-14.495-55.588-19.396c-21.442-5.499-43.097-8.625-65.233-8.657c-6.378-0.009-12.757-0.599-19.132-0.988
	c-1.209-0.074-2.782,0.065-3.064-1.641c-0.301-1.818,1.256-1.773,2.429-2.25c13.788-5.602,23.93-14.835,28.735-29.254
	c0.592-1.776,1.44-2.567,3.428-2.625c4.989-0.145,9.979-0.478,14.952-0.911c4.226-0.368,7.82-1.86,9.983-5.942
	c4.182-7.891-1.855-15.358-10.261-15.438c-4.632-0.045-9.286,0.396-13.898,0.908c-2.464,0.274-3.765-0.264-4.72-2.732
	c-10.542-27.214-44.752-35.326-68.614-21.808c-11.243,6.37-19.019,15.309-22.812,27.648c-0.51,1.66-1.231,2.442-3.053,2.632
	c-6.348,0.662-12.674,1.533-19.011,2.301c-3.629,0.439-7.096,1.206-9.51,4.859c-1.375-3.033,0.202-5.177,0.841-7.361
	c2.444-8.347,8.303-14.607,13.476-21.227c1.71-2.188,1.345-4.818,2.938-7.103c9.674-13.882,21.343-25.969,33.127-37.984
	c8.612-8.781,17.369-17.436,23.729-28.134c7.531-12.668,8.829-26.086,5.248-40.202c-0.98-3.866-1.06-7.908-2.813-11.646
	c-3.916-8.355-9.587-15.48-15.058-22.808c-6.831-9.148-16.9-13.083-26.718-17.324c-19.416-8.387-39.818-11.43-60.84-9.431
	c-15.979,1.519-31.313,5.897-46.198,11.872c-27.733,11.131-51.478,27.883-70.647,50.825c-19.777,23.668-35.008,50.034-45.708,79.006
	c-10.606,28.72-15.058,58.41-12.373,88.828c3.721,42.161,19.296,79.392,49.114,110.033c9.041,9.29,19.468,16.8,31.356,22.117
	c1.776,0.794,1.857,1.374,1.042,3.068c-3.841,7.989-8.616,15.493-11.917,23.771c-4.067,10.203-7.065,20.742-10.237,31.221
	c-2.709,8.952-4.91,18.058-7.335,27.097c-0.961,0.203-1.349,0.596-0.463,1.406c-0.083,0.695-0.167,1.389-0.251,2.083
	C193.449,612.652,193.757,613.693,194.047,614.729z M69.813,401.746c3.195-1.589,2.865-3.383,1.726-5.391
	C71.039,397.917,70.539,399.479,69.813,401.746z"/>
<path fill-rule="evenodd" clip-rule="evenodd" fill="#FCFCFC" d="M285.718,494.853c9.397-9.935,20.595-17.519,32.255-24.443
	c13.74-8.16,28.448-14.316,43.526-19.408c6.612-2.232,13.808-2.763,20.756-3.963c8.085-1.397,16.013-3.611,24.224-4.379
	c7.025-0.657,14.006-2.242,21.026-2.379c12.658-0.249,25.278-1.36,37.955-1.223c12.729,0.138,25.007,3.079,37.423,5.225
	c8.436,1.458,16.878,2.887,25.306,4.392c13.172,2.351,25.181,7.505,36.61,14.452c15.464,9.4,29.969,20.083,43.945,31.509
	c12.017,9.823,21.733,21.886,31.591,33.73c10.71,12.869,18.461,27.724,26.906,42.097c12.343,21.004,21.157,43.598,30.125,66.138
	c4.202,10.565,7.493,21.381,9.869,32.476c1.122,5.235,1.47,10.57,1.098,15.934c-0.105,1.521-0.648,2.439-2.256,3.047
	c-4.198,1.586-8.448,3.107-12.301,5.485c-0.884,0.545-1.967,0.977-2.55,1.764c-3.558,4.803-8.945,6.227-14.199,7.944
	c-25.695,8.401-51.168,17.468-77.151,25.008c-23.319,6.766-46.715,13.143-70.47,18.203c-20.496,4.367-41.098,8.113-61.798,11.362
	c-38.228,6.001-76.634,7.58-115.256,5.351c-12.528-0.724-25.027-1.659-37.433-3.374c-11.904-1.646-23.634-4.291-35.303-7.311
	c-12.413-3.214-24.655-6.952-36.947-10.552c-8.935-2.616-16.895-7.367-25.091-11.579c-3.397-1.746-4.557-5.265-4.941-8.658
	c-0.731-6.441-1.382-12.93-0.806-19.444c1-0.006,1.666,0.609,2.434,1.156c11.239,8.012,23.983,11.683,37.56,11.078
	c12.952-0.577,25.13-4.367,35.741-12.413c15.948-12.094,24.278-28.25,25.363-47.994c0.686-12.471-2.523-24.254-8.842-35.108
	c9.123,2.482,17.42,0.976,24.696-5.213c15.951-13.569,18.851-42.064,5.901-58.573c-6.624-8.443-14.934-13.104-26.025-10.56
	c-10.643,2.442-17.008,9.857-21.288,19.256c-5.176,11.367-5.117,23.113-1.584,34.946c-1.695,0.263-2.789-0.959-4.045-1.703
	c-12.125-7.184-25.107-9.94-39.155-8.22c-3.988,0.488-7.792,2.202-11.902,1.728c2.964-8.382,6.845-16.358,10.633-24.387
	c4.231-8.967,7.214-18.517,12.569-26.96c1.105-1.743,2.32-3.418,3.484-5.124c1.027-0.084,1.385-0.655,1.186-1.63
	c0.283-0.394,0.566-0.788,0.849-1.182c1.641-0.377,1.992-1.571,1.921-3.033c-0.072-0.2-0.016-0.355,0.168-0.462
	c6.198-4.314,8.197-11.239,10.99-17.67c-0.022-0.228,0.078-0.37,0.299-0.427c1.672,0.046,2.09-0.847,1.735-2.317
	c-0.044-0.159-0.018-0.304,0.078-0.435c0.388-0.18,0.778-0.361,1.168-0.544c1.676,1.546-0.533,3.257,0.207,4.843
	c-0.456,0.967-0.611,1.867,0.543,2.48c2.885,6.314,8.846,7.748,14.521,3.387c5.732-4.406,12.319-6.648,19.295-8.064
	c5.094-1.034,10.382-0.921,15.336-2.806c6.086-2.316,7.251-8.63,2.249-12.848c-3.422-2.886-7.518-4.13-11.893-4.211
	c-10.472-0.195-20.265,2.424-29.396,7.541C286.325,496.143,286.021,495.498,285.718,494.853z M584.576,707.768
	c34.208-0.127,62.128-28.137,62.519-62.35c0.407-35.703-28.342-64.018-63.442-63.716c-34.981,0.301-62.268,27.189-62.641,62.768
	C520.646,679.404,548.85,707.896,584.576,707.768z M409.648,727.086c2.902,0,5.862,0.377,8.697-0.062
	c17.075-2.643,30.942-11.146,42.456-23.771c8.929-9.79,15.939-20.834,20.281-33.339c4.278-12.322,10.154-24.233,8.93-38.03
	c-0.574-6.467-2.871-9.548-9.279-9.586c-8.861-0.054-17.563,1.437-26.249,2.632c-14.869,2.048-29.779,3.028-44.747,3.37
	c-17.2,0.393-34.372-0.396-51.527-1.665c-6.876-0.508-13.888-1.189-18.362,5.908c-0.175,0.278-0.518,0.465-0.809,0.652
	c-4.493,2.88-5.217,7.152-4.198,11.909c0.673,3.144,1.531,6.269,2.579,9.309c4.978,14.445,9.823,29.042,18.552,41.729
	C368.864,714.876,385.595,727.549,409.648,727.086z M546.415,571.266c-0.042-12.214-2.911-21.386-9.41-29.084
	c-10.533-12.476-25.562-12.99-37.572-1.988c-6.956,6.371-9.507,14.953-11.419,23.718c-2.84,13.022-0.096,24.943,8.431,35.195
	c10.213,12.278,25.922,12.414,36.829,2.341C542.409,593.012,545.794,581.994,546.415,571.266z M405.204,610.257
	c7.278-0.647,14.382-1.885,20.304-7.982c5.229-5.384,3.926-16.83-2.996-20.43c-7.375-3.836-14.987-5.131-23.101-3.617
	c-6.163,1.15-11.157,4.02-14.709,9.445c-3.401,5.196-3.451,10.342,0.62,14.956C390.485,608.483,397.456,609.803,405.204,610.257z
	 M518.682,504.216c9.755-0.198,18.635,1.588,28.215,5.477c3.847,1.562,7.354,1.116,9.284-1.182c1.963-2.337,2.001-6.631-0.115-9.77
	c-1.425-2.112-3.232-3.896-5.478-5.217c-6.819-4.01-14.357-5.381-22.049-6.629c-8.516-1.381-16.603-0.059-24.576,2.545
	c-4.042,1.319-5.962,4.595-5.554,8.232c0.403,3.593,3.084,6.066,7.28,6.779C510.337,505.243,514.94,503.889,518.682,504.216z"/>
<path fill-rule="evenodd" clip-rule="evenodd" fill="#2167AD" d="M490.666,883.466c0.006-0.71,0.013-1.42,0.02-2.13
	c0.127-0.197,0.167-0.411,0.117-0.641c0,0,0.096-0.11,0.096-0.109c1.8-0.221,3.653-0.246,5.39-0.707
	c3.087-0.818,6.544,0.17,9.347-1.941c0.423-0.028,0.845-0.057,1.268-0.084c6.09,0.142,11.834-1.878,17.748-2.838
	c13.315-2.164,26.604-4.458,39.791-7.326c12.636-2.749,25.142-6.027,37.547-9.64c5.047-1.47,10.187-2.888,14.917-5.338
	c0,0,0.124-0.053,0.124-0.052c5.246-1.351,10.577-2.467,15.211-5.51c5.633-1.051,10.649-3.818,15.869-5.938
	c15.403-6.254,30.707-12.773,45.597-20.19c7.618-3.794,15.088-7.853,22.444-12.191c11.788-6.953,22.954-14.728,33.883-22.897
	c2.03-1.52,3.911-3.247,5.795-4.951c1.438-1.301,2.471-1.758,3.033,0.72c4.614,20.318,12.032,39.969,14.885,60.69
	c1.787,12.982,1.994,25.992,0.534,39.157c-1.591,14.33-4.46,28.361-8.104,42.198c-5.626,21.366-13.416,41.957-26.377,60.147
	c-13.71,19.243-30.998,34.57-51.439,46.426c-11.151,6.467-22.594,12.317-34.653,16.853c-11.998,4.511-23.998,8.977-36.426,12.328
	c-13.195,3.558-26.391,7.087-39.703,10.154c-12.842,2.959-25.628,6.107-38.954,6.518c-9.595,0.295-19.163,1.545-28.738,2.425
	c-4.925,0.452-5.319,0.153-7.093-4.457c-3.45-8.965-7.25-17.802-10.484-26.841c-3.156-8.822-5.814-17.824-8.646-26.762
	c-5.031-15.881-9.31-31.976-13.396-48.116c-3.715-14.679-7.121-29.435-10.661-44.157c-0.273-1.137-0.627-2.293,0.579-3.161
	c2.549-0.864,4.929-2.008,6.756-4.069c0,0,0.153-0.107,0.153-0.106c5.375-2.294,9.402-6.176,12.762-10.842
	c0,0-0.034,0.017-0.035,0.016c1.785-0.917,2.881-2.384,3.422-4.293c0,0-0.019,0.017-0.019,0.017
	c1.382-0.472,1.698-1.648,1.913-2.892c0,0,0.095-0.066,0.096-0.065C489.122,896.983,491.005,890.535,490.666,883.466z
	 M565.617,974.033c3.785,0.046,7.002-0.355,10.24-0.635c22.11-1.901,43.383-7.302,63.664-16.102
	c16.208-7.031,33.368-12.684,45.36-27.019c2.268-2.711,3.568-5.423,3.246-8.783c-0.637-6.619-2.865-12.862-5.116-19.054
	c-3.012-8.286-6.871-16.165-11.424-23.749c-3.447-5.742-5.155-6.723-11.44-4.284c-10.56,4.096-21.312,7.626-32.046,11.225
	c-16.244,5.443-32.611,10.479-49.288,14.374c-13.281,3.103-26.39,6.937-39.846,9.322c-6.378,1.132-7.997,5.857-4.021,10.9
	c0.506,0.643,0.935,1.247,1.131,2.093c2.143,9.226,4.265,18.457,6.564,27.644c0.756,3.021,1.676,6.152,3.815,8.494
	c1.268,1.387,1.213,2.483,0.777,4.042c-1.318,4.707,0.234,7.749,4.904,9.586C556.636,973.855,561.351,974.301,565.617,974.033z
	 M703.506,988.733c-0.161-19.593-14.949-34.673-33.527-34.502c-19.607,0.181-34.151,15.796-34.011,35.367
	c0.142,19.889,14.87,34.146,33.08,34.425C688.151,1024.316,703.689,1008.141,703.506,988.733z M580.719,1047.132
	c18.256-0.042,29.658-4.449,39.146-14.103c12.057-12.268,8.804-30.373-6.671-37.438c-6.965-3.179-14.266-3.886-21.766-3.302
	c-12.618,0.983-23.639,5.488-32.036,15.24c-8.314,9.654-8.52,21.691-0.247,30.221
	C565.673,1044.481,574.215,1046.826,580.719,1047.132z"/>
<path fill-rule="evenodd" clip-rule="evenodd" fill="#D1D1D1" d="M205.652,782.701c0-6.96,0.094-15.096-0.053-23.228
	c-0.048-2.662,0.785-3.124,3.216-2.525c5.387,1.323,9.868,4.525,14.717,6.919c16.973,8.38,34.579,15.022,52.836,19.944
	c25.215,6.796,50.992,9.39,77.005,10.71c15.568,0.79,31.117,1.028,46.685,0.932c18.835-0.117,37.513-2.204,56.176-4.556
	c13.575-1.71,27.1-3.746,40.562-6.127c14.008-2.478,27.94-5.379,41.863-8.333c21.292-4.515,42.343-10.012,63.49-15.103
	c28.479-6.854,56.467-15.321,83.313-27.321c14.167-6.333,29.098-10.662,43.924-15.217c5.697-1.75,11.346-1.69,17.154-1.251
	c2.02,0.152,2.187,1.775,3.298,2.579c6.634,4.798,7.678,12.107,8.649,19.355c0.428,3.194,0.262,6.477-0.092,9.732
	c-0.669,6.149-4.039,10.352-9.07,13.589c-22.646,14.569-44.237,30.808-68.982,42.007c-22.136,10.019-44.391,19.69-67.311,27.783
	c-15.703,5.545-31.749,9.835-47.967,13.627c-16.695,3.902-33.58,6.673-50.49,9.301c-9.954,1.548-20.018,2.385-30.022,3.618
	c-1.532,0.189-2.329-0.58-3.25-1.525c-8.838-9.078-18.764-16.62-31.017-20.399c-12.981-4.004-26.23-5.298-39.837-3.622
	c-11.673,1.438-22.553,4.853-32.71,10.705c-4.974,2.866-9.325,6.499-13.19,10.719c-0.896,0.979-1.682,1.764-3.226,1.521
	c-5.189-0.814-10.437-0.51-15.66-0.539c-12.204-0.068-24.229-2.025-36.276-3.558c-15.94-2.027-31.641-5.556-47.304-9.064
	c-17.009-3.811-33.954-8.013-50.287-14.265c-2.931-1.122-5.147-3.121-5.242-6.565C206.197,809.654,205.139,796.785,205.652,782.701z
	"/>
<path fill-rule="evenodd" clip-rule="evenodd" fill="#2067AE" d="M422.755,1080.842c-14.429-1.013-29.576-1.85-44.658-3.828
	c-8.849-1.16-17.732-2.262-26.419-4.111c-15.476-3.296-31.001-6.614-45.59-13.137c-12.473-5.577-23.462-13.413-34.23-21.676
	c-15.835-12.151-27.323-27.768-36.2-45.384c-6.792-13.479-11.535-27.75-15.323-42.367c-3.632-14.015-5.989-28.281-8.83-42.452
	c-0.612-3.05-0.836-6.223-0.854-9.341c-0.08-14.404-1.935-28.712-2.273-43.099c-0.082-3.48,0.503-3.779,3.759-2.407
	c12.354,5.207,25.126,9.175,38.159,12.216c10.448,2.438,20.913,4.839,31.503,6.646c13.955,2.384,28.007,4.452,42.109,4.843
	c8.546,0.238,17.052,1.058,25.589,1.137c2.47,0.023,3.417,0.632,3.392,3.377c-0.121,13.376,5,24.276,15.056,33.315
	c8.246,7.41,17.69,12.125,28.066,15.331c2.515,0.778,3.587,1.757,3.683,4.715c0.401,12.284,2.232,24.437,4.192,36.559
	c1.329,8.219,2.47,16.487,4.259,24.609c2.732,12.411,5.764,24.765,9.014,37.052c4.053,15.316,8.84,30.419,14.576,45.201
	c0.851,2.193-0.117,2.757-1.985,2.792C427.662,1080.872,425.57,1080.842,422.755,1080.842z"/>
<path fill-rule="evenodd" clip-rule="evenodd" fill="#F9DA50" d="M711.194,464.484c-1.405-7.58-4.038-14.772-7.222-21.743
	c-11.283-24.706-28.114-44.851-50.267-60.542c-12.818-9.079-26.925-15.785-41.164-22.257c-12.942-5.882-26.341-10.839-38.037-19.243
	c-7.455-5.356-13.415-12.087-18.95-19.278c-0.793-1.031-1.129-2.281-1.247-3.57c-2.169-23.695-0.376-47.067,6.552-69.861
	c4.08-13.422,10.616-25.625,20.636-35.716c8.485-8.544,19.017-12.974,30.651-15.038c25.595-4.54,48.199,3.333,68.833,17.646
	c32.936,22.845,54.708,54.241,68.051,91.688c9.339,26.209,14.358,53.288,13.497,81.143c-0.934,30.203-6.959,59.3-22.064,85.926
	c-5.453,9.612-12.135,18.378-19.717,26.436c-0.832,0.884-1.788,1.651-3.307,3.039c-0.114-8.612-0.345-16.448-2.188-24.103
	c0.158-1.116,0.109-2.187-0.672-3.099l0.1-0.189l-0.159-0.143c0.075-3.62-1.79-6.759-2.516-10.181
	c-0.215-0.168-0.429-0.336-0.641-0.501C711.448,464.707,711.389,464.568,711.194,464.484z M728.647,416.103
	c1.167,2.971,3.413,1.414,5.229,1.132c2.799-0.434,2.494-3.69,4.149-5.004c1.998-1.586,2.665-3.376,2.459-5.692
	c-0.607-6.81-0.837-13.633-0.688-20.467c0.021-0.974-0.139-2.023-0.831-2.583c-2.12-1.719-2.019-4.015-1.988-6.349
	c0.03-2.322,0.053-4.646,0.021-6.968c-0.015-1.092,0.364-2.462-1.396-2.672c-0.656-0.608-0.66-1.448-0.791-2.241
	c-1.667-10.061-4.293-19.886-8.223-29.274c-9.804-23.423-22.969-44.826-39.5-64.12c-7.28-8.495-15.414-16.027-25.276-21.499
	c-1.415-0.785-2.865-1.566-4.392-2.079c-3.63-1.219-6.723-0.206-8.215,2.508c-1.581,2.875-1.002,5.808,1.903,8.382
	c5.466,4.842,11.328,9.236,16.452,14.463c15.499,15.81,26.718,34.587,37.321,53.801c11.525,20.884,16.732,43.369,17.609,67.074
	c0.24,6.506-0.226,13.3,3.459,19.257c-0.318,2.046,0.567,2.777,2.538,2.323L728.647,416.103z M734.006,469.211
	c-0.027-4.912-4.124-8.904-9.147-8.915c-4.715-0.009-8.368,3.652-8.294,8.314c0.074,4.711,4.406,8.938,9.214,8.992
	C730.426,477.654,734.033,473.977,734.006,469.211z M737.747,441.433c-0.063-4.527-4.052-8.255-8.66-8.098
	c-4.133,0.142-7.831,3.987-7.871,8.185c-0.04,4.19,4.008,8.122,8.348,8.108C734.058,449.614,737.808,445.859,737.747,441.433z"/>
<path fill-rule="evenodd" clip-rule="evenodd" fill="#F8DA50" d="M213.216,484.903c-4.072-3.064-6.853-6.752-9.849-10.199
	c-2.049-2.356-3.741-5.021-5.758-7.408c-1.584-1.874-1.615-2.924,0.688-4.395c3.876-2.475,5-6.87,3.375-11.017
	c-1.481-3.783-5.283-6.076-9.437-5.675c-0.575,0.056-1.274,0.016-1.69,0.325c-3.763,2.795-5.01,0.676-6.438-2.726
	c-5.666-13.497-9.707-27.399-12.178-41.845c-2.552-14.918-2.344-29.857-0.822-44.753c1.76-17.218,6.25-33.871,12.635-49.969
	c8.989-22.667,21.225-43.451,36.431-62.512c14.191-17.789,31.479-31.688,51.962-41.577c12.314-5.944,25.1-10.581,38.585-13.08
	c15.844-2.937,31.491-2.613,47.098,2.009c13.649,4.041,25.579,11.003,37.241,18.943c6.78,4.615,8.675,10.759,9.48,18.102
	c1.413,12.874-4.141,22.897-12.505,31.871c-11.472,12.307-23.74,23.857-34.741,36.614c-4.552,5.279-8.902,10.71-12.865,16.442
	c-14.24,20.601-32.292,36.686-55.073,47.445c-14.47,6.834-28.487,14.493-40.681,25.114c-16.942,14.757-28.411,32.748-33.46,54.784
	c-2.961,12.921-3.79,25.881-2,39.013c0.125,0.917,0.135,1.853,0.161,2.781C213.387,483.604,213.303,484.021,213.216,484.903z
	 M182.951,388.812c-0.036,7.655,2.341,10.397,9.369,10.962c3.802,0.306,4.981-1.062,5.111-4.786
	c0.101-2.895-0.217-5.791,0.218-8.691c2.033-13.53,4.865-26.874,10.224-39.511c6.003-14.155,12.01-28.338,20.801-41.088
	c8.753-12.694,17.735-25.21,28.746-36.116c6.196-6.137,13.224-11.229,20.172-16.443c2.554-1.916,4.683-4.508,3.686-7.971
	c-1.003-3.482-4.092-4.035-7.294-4.036c-6.218-0.001-11.375,3.198-16.127,6.387c-23.185,15.558-40.123,36.547-52.077,61.665
	c-6.823,14.336-12.201,29.212-16.397,44.512C186.224,365.209,183.761,376.863,182.951,388.812z M200.298,425.419
	c-0.05-4.786-4.072-8.787-8.861-8.814c-4.973-0.029-8.967,4.058-8.903,9.108c0.064,5.052,4.07,8.844,9.214,8.724
	C196.709,434.32,200.351,430.479,200.298,425.419z"/>
<path fill-rule="evenodd" clip-rule="evenodd" fill="#ECAE84" d="M304.089,618.975c6.319,10.854,9.527,22.638,8.842,35.108
	c-1.085,19.744-9.416,35.9-25.363,47.994c-10.611,8.046-22.79,11.836-35.741,12.413c-13.577,0.604-26.321-3.066-37.56-11.078
	c-0.768-0.547-1.434-1.162-2.434-1.156c-0.828-4.839-0.549-9.715-0.156-14.545c1.088-13.391,3.111-26.628,6.083-39.767
	c1.495-6.609,1.537-13.548,3.275-20.187c3.018-11.526,4.484-23.429,8.41-34.736c0.297-0.855,0.319-1.855,1.243-2.385
	c4.11,0.474,7.914-1.24,11.902-1.728c14.048-1.721,27.03,1.036,39.155,8.22c1.257,0.744,2.35,1.966,4.045,1.703
	c0.95,1.93,1.839,3.892,2.859,5.784C292.166,611.143,297.397,615.849,304.089,618.975z"/>
<path fill-rule="evenodd" clip-rule="evenodd" fill="#FBFBFB" d="M672.429,432.833c0.24,0.381,0.48,0.761,0.721,1.141
	c-0.318,1.078,0.038,1.701,1.2,1.782c7.425,10.898,12.4,22.912,16.139,35.484c3.028,10.176,4.503,20.537,4.012,31.193
	c-0.322,7.015-2.093,13.677-4.071,20.332c-0.371,1.25-1.194,1.922-2.292,2.41c-4.07,1.811-10.135,0.282-12.83-3.329
	c-8.285-11.106-17.805-21.097-27.829-30.607c-8.574-8.135-15.847-17.54-24.897-25.207c-5.661-4.796-11.344-9.569-17.583-13.588
	c-1.948-1.255-2.388-2.664-1.86-4.626c3.543-13.182,0.976-25.696-4.232-37.875c-5.103-11.93-11.828-22.774-21.197-31.931
	c-3.78-3.694-6.343-8.407-8.997-12.977c0.321-0.602,0.643-1.205,0.964-1.807c0.449,0.281,0.898,0.561,1.348,0.841
	c0.105,1.075,0.711,1.403,1.709,1.146c5.725,2.867,11.397,5.849,17.187,8.581c15.638,7.383,31.649,14.021,46.215,23.509
	c0.669,0.436,1.258,0.992,1.885,1.492c0.259,1.686,1.454,2.033,2.896,2.026l-0.021-0.017c0.103,1.853,1.385,2.078,2.843,2.059
	l-0.146,0.174l0.152-0.169c-0.21,1.092-0.976,2.933,0.234,3.086c4.012,0.506,4.248,4.631,6.855,6.627
	c6.118,4.683,11.212,10.698,16.766,16.129c0.935,0.915,1.629,2.384,3.367,2.015c0.014,0.982,0.028,1.965,0.043,2.949
	C671.484,433.395,671.957,433.114,672.429,432.833z"/>
<path fill-rule="evenodd" clip-rule="evenodd" fill="#FBFBFB" d="M798.438,809.91c-2.187-7.95-3.017-15.669-5.06-23.134
	c-2.379-8.691-4.634-17.448-6.25-26.303c-0.856-4.694-1.76-9.46-2.146-14.215c-0.556-6.832-1.925-13.486-3.251-20.167
	c-0.413-2.079,0.497-3.029,2.327-3.947c20.536-10.313,41.328-20.049,63.18-27.269c6.44-2.128,13.021-4.147,19.97-4.085
	c5.81,0.052,7.504,2.196,6.462,8.091c-1.234,6.98-3.543,13.618-6.162,20.177c-7.388,18.504-18.683,34.593-31.033,49.995
	C824.929,783.452,812.229,796.798,798.438,809.91z"/>
<path fill-rule="evenodd" clip-rule="evenodd" fill="#D1D1D1" d="M468.895,1080.978c-6.036,0-12.072-0.053-18.106,0.032
	c-1.785,0.025-2.626-0.592-3.302-2.294c-7.707-19.433-13.77-39.387-18.943-59.617c-4.752-18.587-8.302-37.43-11.479-56.34
	c-1.494-8.891-2.753-17.821-4.042-26.744c-0.208-1.439-0.475-3.124,2.116-2.812c10.285,1.239,20.336-0.543,30.343-2.607
	c1.458-0.301,2.295-0.658,2.38,1.441c0.515,12.799,3.989,25.094,6.765,37.484c3.405,15.201,7.517,30.239,12.116,45.125
	c6.398,20.707,13.457,41.189,21.845,61.189c1.588,3.788,1.593,3.855-2.651,3.908c-5.681,0.069-11.364,0.017-17.046,0.017
	C468.893,1080.166,468.894,1080.571,468.895,1080.978z"/>
<path fill-rule="evenodd" clip-rule="evenodd" fill="#FBFBFB" d="M244.962,423.811c0.115-0.199,0.229-0.397,0.344-0.596
	c0.97-0.222,1.938-0.443,2.908-0.665c0.086,0.054,0.173,0.106,0.26,0.161c-0.091-0.049-0.182-0.099-0.272-0.148
	c1.24-4.581,5.55-6.97,7.782-10.881c1.195-2.093,2.739-4.424,4.742-5.504c2.416-1.303,3.333-3.145,4.148-5.366
	c0.392-0.751,1.065-1.156,1.813-1.467c1.042,0.232,1.681-0.087,1.701-1.248l-0.013,0.014c0.869,0.084,1.458-0.188,1.492-1.169
	c0.052-0.232,0.196-0.334,0.432-0.306c1.235,0.207,2.252,0.109,2.166-1.541c0.335-0.621,0.815-1.044,1.543-1.129
	c1.161,0.962,1.279,0.149,1.328-0.781l-0.005,0.003c0.491,0.171,1.184,0.631,1.432,0.457c0.567-0.398-0.083-0.873-0.278-1.308
	l0.08-0.051c2.757,0.743,4.069-0.955,5.148-3.047c9.261-5.104,18.537-10.183,27.775-15.328c3.005-1.673,5.913-3.521,9.51-5.674
	c-0.561,2.808-0.951,5.001-1.44,7.174c-3.733,16.558-4.196,33.285-2.642,50.12c0.255,2.766,0.252,5.59,1.176,8.237
	c1.166,3.34-0.416,4.895-3.237,6.341c-20.363,10.44-38.717,23.582-54.122,40.652c-5.291,5.863-10.041,12.139-14.671,18.518
	c-1.495,0.06-1.5,1.079-1.396,2.167c-0.198,0.218-0.396,0.437-0.594,0.655c-0.583-0.017-1.168-0.039-1.516,0.57
	c-1.097-0.079-2.027-0.533-2.837-1.256c0.01-0.908,0.209-1.905-1.049-2.21c-0.096-1.146-0.192-2.291-0.288-3.436
	c0.646-0.523,0.61-0.992-0.111-1.408c-0.072-0.314-0.144-0.627-0.216-0.941c0.374-0.752,0.245-1.375-0.476-1.846
	c-0.159-1.633-0.318-3.266-0.478-4.899c0.876-0.919,0.733-1.626-0.438-2.123c-0.096-1.847-0.193-3.693-0.289-5.541
	c0.686-1.525,1.361-3.049-0.599-4.197c-0.444-4.62-0.427-9.242-0.016-13.863c1.954-1.121,1.302-2.656,0.666-4.188
	c0.045-0.922,0.091-1.845,0.137-2.767c1.386-0.341,1.522-1.415,1.807-2.618c0.704-2.977,1.233-5.946,2.365-8.898
	c1.422-3.707,4.033-6.971,4.459-11.04c0.135-1.291-0.204-2.386,1.438-3.333C245.531,427.583,247.196,425.42,244.962,423.811z"/>
<path fill-rule="evenodd" clip-rule="evenodd" fill="#FBFBFB" d="M701.009,1057.818c-2.399,8.807-5.628,16.554-9.373,24.062
	c-7.893,15.819-17.203,30.765-29.341,43.699c-11.776,12.549-24.548,23.91-40.858,30.464c-5.159,2.072-10.452,3.64-15.978,4.213
	c-5,0.518-7.444-1.189-9.318-5.92c-1.56-3.933-2-8.102-2.393-12.228c-0.846-8.888-1.288-17.813-2.11-26.703
	c-0.458-4.948-0.944-9.963-2.197-14.742c-0.74-2.823,0.439-3.18,2.344-3.65c8.639-2.132,17.331-4.06,25.91-6.408
	c28.009-7.668,55.292-17.239,80.739-31.493C699.035,1058.774,699.664,1058.491,701.009,1057.818z"/>
<path fill-rule="evenodd" clip-rule="evenodd" fill="#FBFBFB" d="M181.321,891.231c-8.566-7.369-15.784-14.534-23.196-21.498
	c-19.757-18.563-33.689-41.114-45.036-65.408c-3.938-8.432-6.229-17.407-6.412-26.837c-0.048-2.506,0.572-4.821,1.244-7.142
	c0.622-2.147,2.044-3.462,4.397-3.916c4.875-0.938,9.484,0.24,14,1.683c14.698,4.697,28.099,12.283,41.863,19.059
	c1.959,0.964,3.834,2.152,5.873,2.896c2.824,1.029,3.774,2.584,3.881,5.793c0.648,19.491,1.635,38.973,2.557,58.455
	C181.056,866.251,180.341,878.199,181.321,891.231z"/>
<path fill-rule="evenodd" clip-rule="evenodd" fill="#FBFBFB" d="M277.819,1072.036c20.924,10.981,43.075,17.513,65.87,22.169
	c9.413,1.924,18.845,3.662,28.393,4.759c4.357,0.501,8.6,3.997,9.059,7.801c1.626,13.445,0.721,26.629-5.487,38.93
	c-3.346,6.628-8.212,11.827-16.177,12.705c-7.365,0.812-14.165-1.109-20.659-4.537c-9.424-4.976-16.544-12.533-23.522-20.34
	c-16.064-17.969-27.52-38.779-37.625-60.442C277.594,1072.916,277.723,1072.658,277.819,1072.036z"/>
<path fill-rule="evenodd" clip-rule="evenodd" fill="#F8DA50" d="M420.521,852.866c15.823,0.673,29.298,3.95,40.985,13.364
	c10.627,8.561,11.887,21.55,2.617,31.439c-6.951,7.416-15.739,11.275-25.313,13.552c-13.129,3.121-26.26,2.712-39.111-1.463
	c-8.462-2.75-16.174-6.864-21.84-14.111c-6.243-7.985-6.095-18.196,0.611-25.756c8.683-9.788,20.031-14.199,32.661-15.84
	C414.679,853.59,418.179,852.459,420.521,852.866z"/>
<path fill-rule="evenodd" clip-rule="evenodd" fill="#DFF2F8" d="M342.273,372.034c4.078,7.886,7.604,9.549,16.355,8.203
	c5.271-0.811,10.604-1.223,15.871-2.055c2.23-0.353,2.523,1.078,3.091,2.442c4.309,10.356,11.908,17.524,21.782,22.479
	c4.658,2.337,9.743,3.329,14.9,5.017c-3.553,1.069-7.04,2.667-10.669,3.115c-15.674,1.94-30.961,5.533-46.019,10.167
	c-5.622,1.73-11.17,3.716-16.687,5.762c-2.138,0.792-3.169,0.664-3.461-1.878c-1.291-11.238-1.31-22.452,0.158-33.676
	c0.782-5.98,2.018-11.863,3.461-17.711C341.226,373.21,341.319,372.531,342.273,372.034z"/>
<path fill-rule="evenodd" clip-rule="evenodd" fill="#DFF2F8" d="M421.136,388.424c-11.3-0.366-20.708-4.151-25.475-15.239
	c-3.745-8.71-1.19-16.467,4.649-23.45c10.52-12.579,32.243-13.644,43.985-2.319c9.151,8.826,8.054,22.555-0.149,31.184
	C439.055,383.956,431.039,388.543,421.136,388.424z"/>
<path fill-rule="evenodd" clip-rule="evenodd" fill="#050508" d="M275.973,511.309c-0.74-1.586,1.469-3.297-0.208-4.843
	c0.014,0.031-0.006-0.034-0.062-0.195c0,0,0.088-0.071,0.088-0.072c0.434,0.638,0.921,0.571,1.346,0.032
	c1.535-1.95,3.045-3.919,4.564-5.88c1.642-1.188,3.285-2.376,4.927-3.563c9.131-5.117,18.924-7.736,29.396-7.541
	c4.375,0.081,8.471,1.325,11.893,4.211c5.002,4.218,3.837,10.532-2.249,12.848c-4.954,1.885-10.242,1.772-15.336,2.806
	c-6.976,1.417-13.563,3.659-19.295,8.064c-5.675,4.361-11.636,2.928-14.52-3.384C276.763,512.873,276.813,511.993,275.973,511.309z"
	/>
<path fill-rule="evenodd" clip-rule="evenodd" fill="#050508" d="M616.906,852.712c-4.73,2.45-9.87,3.868-14.917,5.338
	c-12.405,3.612-24.911,6.891-37.547,9.64c-13.187,2.868-26.475,5.162-39.791,7.326c-5.914,0.96-11.658,2.979-17.748,2.838
	c0.122-0.764,0.49-1.264,1.329-1.329c8.713-0.688,17.123-3.176,25.738-4.522c7.687-1.201,15.52-1.951,23.098-3.927
	c6.755-1.759,13.411-4.494,20.261-5.1c5.153-0.456,9.5-3.075,14.596-3.41c3.507-0.23,6.855-2.273,10.372-3.082
	C607.204,855.355,611.487,851.807,616.906,852.712z"/>
<path fill-rule="evenodd" clip-rule="evenodd" fill="#D1D1D1" d="M670.968,430.728c-1.739,0.369-2.434-1.101-3.368-2.016
	c-5.554-5.431-10.647-11.446-16.766-16.129c-2.607-1.996-2.844-6.121-6.855-6.627c-1.21-0.153-0.444-1.994-0.234-3.086
	C654.391,410.621,663.798,419.581,670.968,430.728z"/>
<path fill-rule="evenodd" clip-rule="evenodd" fill="#D1D1D1" d="M186.656,658.882c-0.333-4.925-1.032-9.708-0.337-14.817
	c0.803-5.9,3.003-11.2,4.577-16.766c0.215-0.761,0.107-1.657,1.16-1.872c-1.92,10.452-4,20.878-4.798,31.503
	C187.208,657.592,186.864,658.231,186.656,658.882z"/>
<path fill-rule="evenodd" clip-rule="evenodd" fill="#D1D1D1" d="M244.962,423.811c2.234,1.61,0.569,3.772-0.333,4.294
	c-1.641,0.947-1.302,2.043-1.438,3.333c-0.426,4.069-3.037,7.333-4.459,11.04c-1.131,2.952-1.661,5.921-2.365,8.898
	c-0.285,1.203-0.421,2.276-1.807,2.618C235.819,443.171,238.927,432.986,244.962,423.811z"/>
<path fill-rule="evenodd" clip-rule="evenodd" fill="#D1D1D1" d="M264.874,400.811c-0.815,2.221-1.732,4.063-4.148,5.366
	c-2.003,1.08-3.547,3.412-4.742,5.504c-2.232,3.911-6.542,6.301-7.782,10.881l0.013-0.013c-0.969,0.221-1.938,0.443-2.908,0.665
	c3.009-6.642,8.007-11.769,13.021-16.842C260.33,404.347,262.276,402.172,264.874,400.811z"/>
<path fill-rule="evenodd" clip-rule="evenodd" fill="#D1D1D1" d="M272.486,510.188c-2.793,6.431-4.792,13.356-10.99,17.67
	C264.258,521.407,267.792,515.438,272.486,510.188z"/>
<path fill-rule="evenodd" clip-rule="evenodd" fill="#050508" d="M490.666,883.466c0.34,7.069-1.543,13.518-5.432,19.403
	c-0.124-2.617,0.722-4.793,2.137-7.075c1.411-2.276,1.409-5.222,1.416-7.983C488.791,886.125,488.498,884.245,490.666,883.466z"/>
<path fill-rule="evenodd" clip-rule="evenodd" fill="#050508" d="M479.857,910.087c-3.36,4.666-7.386,8.548-12.762,10.842
	c1.029-3.494,4.901-3.979,6.937-6.474c0.594-0.727,1.477-1.224,1.795-2.245C476.456,910.19,477.912,909.653,479.857,910.087z"/>
<path fill-rule="evenodd" clip-rule="evenodd" fill="#050508" d="M505.635,877.938c-2.803,2.111-6.26,1.123-9.347,1.941
	c-1.737,0.461-3.59,0.486-5.39,0.707c2.67-2.675,6.039-2.855,9.519-2.712C502.154,877.946,503.896,877.919,505.635,877.938z"/>
<path fill-rule="evenodd" clip-rule="evenodd" fill="#050508" d="M632.241,847.15c-4.634,3.043-9.965,4.159-15.211,5.51
	c2.281-2.88,6.018-2.531,8.978-3.926C627.867,847.858,629.996,847.002,632.241,847.15z"/>
<path fill-rule="evenodd" clip-rule="evenodd" fill="#B24C5B" d="M281.702,500.351c-1.52,1.961-3.029,3.93-4.564,5.88
	c-0.424,0.539-0.912,0.605-1.346-0.032c0.748-3.187,3.361-4.895,5.523-6.961C281.444,499.608,281.573,499.979,281.702,500.351z"/>
<path fill-rule="evenodd" clip-rule="evenodd" fill="#050508" d="M466.942,921.035c-1.828,2.062-4.208,3.205-6.756,4.069
	C461.664,922.463,463.776,920.875,466.942,921.035z"/>
<path fill-rule="evenodd" clip-rule="evenodd" fill="#D1D1D1" d="M281.702,500.351c-0.129-0.371-0.258-0.742-0.387-1.113
	c1.266-1.664,2.714-3.146,4.403-4.384c0.304,0.645,0.607,1.29,0.911,1.934C284.987,497.975,283.344,499.163,281.702,500.351z"/>
<path fill-rule="evenodd" clip-rule="evenodd" fill="#050508" d="M712.004,465.4c0.726,3.421,2.591,6.561,2.516,10.181
	C713.189,472.309,712.412,468.9,712.004,465.4z"/>
<path fill-rule="evenodd" clip-rule="evenodd" fill="#050508" d="M483.244,905.81c-0.541,1.909-1.637,3.376-3.422,4.293
	C480.359,908.191,479.662,905.296,483.244,905.81z"/>
<path fill-rule="evenodd" clip-rule="evenodd" fill="#D1D1D1" d="M569.676,363.228c-0.321,0.602-0.643,1.205-0.964,1.807
	c-1.35-0.869-1.8-2.22-2.129-3.972C567.924,361.621,569.055,362.028,569.676,363.228z"/>
<path fill-rule="evenodd" clip-rule="evenodd" fill="#D1D1D1" d="M281.712,389.238c-1.079,2.092-2.391,3.791-5.148,3.047
	C278.125,391.008,279.631,389.636,281.712,389.238z"/>
<path fill-rule="evenodd" clip-rule="evenodd" fill="#D1D1D1" d="M233.774,474.812c1.96,1.148,1.285,2.671,0.599,4.197
	C233.607,477.69,233.523,476.275,233.774,474.812z"/>
<path fill-rule="evenodd" clip-rule="evenodd" fill="#D1D1D1" d="M234.424,456.761c0.636,1.532,1.289,3.067-0.666,4.188
	C233.476,459.473,233.657,458.07,234.424,456.761z"/>
<path fill-rule="evenodd" clip-rule="evenodd" fill="#050508" d="M485.138,902.935c-0.215,1.243-0.531,2.42-1.913,2.892
	C483.368,904.535,483.645,903.332,485.138,902.935z"/>
<path fill-rule="evenodd" clip-rule="evenodd" fill="#D1D1D1" d="M185.434,666.547c-0.126-0.833-0.335-1.672,0.182-2.455
	C187.301,665.04,185.643,665.74,185.434,666.547z"/>
<path fill-rule="evenodd" clip-rule="evenodd" fill="#D1D1D1" d="M640.916,400.823c-1.442,0.007-2.638-0.34-2.896-2.026
	C639.215,399.142,640.438,399.449,640.916,400.823z"/>
<path fill-rule="evenodd" clip-rule="evenodd" fill="#D1D1D1" d="M643.738,402.865c-1.458,0.019-2.74-0.206-2.843-2.059
	C642.118,401.112,643.124,401.718,643.738,402.865z"/>
<path fill-rule="evenodd" clip-rule="evenodd" fill="#D1D1D1" d="M672.429,432.833c-0.473,0.281-0.945,0.563-1.419,0.843
	c-0.015-0.983-0.029-1.966-0.045-2.95C671.914,431.109,672.32,431.868,672.429,432.833z"/>
<path fill-rule="evenodd" clip-rule="evenodd" fill="#D1D1D1" d="M274.52,507.444c0.354,1.471-0.063,2.364-1.735,2.317
	C272.941,508.673,273.681,508.021,274.52,507.444z"/>
<path fill-rule="evenodd" clip-rule="evenodd" fill="#D1D1D1" d="M261.328,528.32c0.071,1.461-0.28,2.656-1.921,3.033
	C259.764,530.163,260.256,529.058,261.328,528.32z"/>
<path fill-rule="evenodd" clip-rule="evenodd" fill="#D1D1D1" d="M234.662,484.549c1.171,0.496,1.315,1.204,0.438,2.123
	C234.448,486.068,234.496,485.32,234.662,484.549z"/>
<path fill-rule="evenodd" clip-rule="evenodd" fill="#D1D1D1" d="M272.464,395.093c0.086,1.65-0.931,1.748-2.166,1.541
	C270.763,395.76,271.44,395.183,272.464,395.093z"/>
<path fill-rule="evenodd" clip-rule="evenodd" fill="#D1D1D1" d="M194.047,614.729c-0.29-1.035-0.598-2.076,0.834-2.546
	C194.985,613.156,194.688,613.999,194.047,614.729z"/>
<path fill-rule="evenodd" clip-rule="evenodd" fill="#D1D1D1" d="M236.669,499.202c1.258,0.306,1.059,1.303,1.049,2.21
	C236.568,501.055,236.736,500.073,236.669,499.202z"/>
<path fill-rule="evenodd" clip-rule="evenodd" fill="#D1D1D1" d="M242.666,501.444c-0.104-1.089-0.1-2.108,1.396-2.167
	C243.852,500.164,243.509,500.965,242.666,501.444z"/>
<path fill-rule="evenodd" clip-rule="evenodd" fill="#050508" d="M714.58,475.913c0.781,0.913,0.83,1.983,0.672,3.099
	C714.314,478.134,714.877,476.93,714.58,475.913z"/>
<path fill-rule="evenodd" clip-rule="evenodd" fill="#D1D1D1" d="M268.388,398.096c-0.02,1.161-0.659,1.479-1.701,1.248
	C267.042,398.639,267.616,398.232,268.388,398.096z"/>
<path fill-rule="evenodd" clip-rule="evenodd" fill="#D1D1D1" d="M269.866,396.94c-0.034,0.981-0.623,1.254-1.492,1.169
	C268.531,397.285,269.1,396.987,269.866,396.94z"/>
<path fill-rule="evenodd" clip-rule="evenodd" fill="#D1D1D1" d="M275.335,393.183c-0.049,0.93-0.167,1.743-1.328,0.781
	C274.256,393.374,274.722,393.152,275.335,393.183z"/>
<path fill-rule="evenodd" clip-rule="evenodd" fill="#D1D1D1" d="M674.35,435.755c-1.162-0.081-1.519-0.704-1.2-1.782
	C674.003,434.262,674.417,434.847,674.35,435.755z"/>
<path fill-rule="evenodd" clip-rule="evenodd" fill="#D1D1D1" d="M276.484,392.336c0.195,0.435,0.845,0.909,0.278,1.308
	c-0.249,0.174-0.941-0.286-1.432-0.457C275.522,392.642,275.887,392.331,276.484,392.336z"/>
<path fill-rule="evenodd" clip-rule="evenodd" fill="#D1D1D1" d="M572.733,365.215c-0.998,0.256-1.604-0.072-1.709-1.146
	C571.887,364.012,572.491,364.344,572.733,365.215z"/>
<path fill-rule="evenodd" clip-rule="evenodd" fill="#D1D1D1" d="M235.578,491.57c0.721,0.471,0.85,1.094,0.476,1.846
	C235.284,492.959,235.253,492.311,235.578,491.57z"/>
<path fill-rule="evenodd" clip-rule="evenodd" fill="#D1D1D1" d="M258.559,532.535c0.199,0.975-0.159,1.546-1.186,1.63
	C257.45,533.39,257.808,532.819,258.559,532.535z"/>
<path fill-rule="evenodd" clip-rule="evenodd" fill="#D1D1D1" d="M236.27,494.358c0.722,0.416,0.757,0.885,0.111,1.408
	C236.054,495.319,235.962,494.854,236.27,494.358z"/>
<path fill-rule="evenodd" clip-rule="evenodd" fill="#D1D1D1" d="M195.132,610.1c-0.886-0.811-0.498-1.203,0.463-1.406
	C195.441,609.162,195.287,609.631,195.132,610.1z"/>
<path fill-rule="evenodd" clip-rule="evenodd" fill="#D1D1D1" d="M240.555,502.668c0.348-0.608,0.933-0.587,1.516-0.57
	C241.949,503.307,241.501,503.65,240.555,502.668z"/>
<path fill-rule="evenodd" clip-rule="evenodd" fill="#D1D1D1" d="M192.291,623.328c-0.883-0.758-0.425-1.127,0.401-1.391
	C192.907,622.502,192.712,622.947,192.291,623.328z"/>
<path fill-rule="evenodd" clip-rule="evenodd" fill="#B24C5B" d="M275.704,506.27c0.056,0.161,0.076,0.227,0.062,0.195
	c-0.389,0.183-0.779,0.364-1.167,0.544C274.702,506.363,274.907,505.874,275.704,506.27z"/>
<path fill-rule="evenodd" clip-rule="evenodd" fill="#050508" d="M711.194,464.484c0.195,0.083,0.254,0.223,0.17,0.415
	C711.292,464.764,711.236,464.626,711.194,464.484z"/>
<path fill-rule="evenodd" clip-rule="evenodd" fill="#050508" d="M490.802,880.695c0.049,0.229,0.01,0.443-0.117,0.641
	c-0.046-0.162-0.111-0.324-0.124-0.489C490.558,880.803,490.717,880.746,490.802,880.695z"/>
<path fill-rule="evenodd" clip-rule="evenodd" fill="#C0D16F" d="M69.813,401.746c0.726-2.267,1.226-3.829,1.726-5.391
	C72.678,398.363,73.008,400.157,69.813,401.746z"/>
<path fill-rule="evenodd" clip-rule="evenodd" fill="#ECAE84" d="M584.576,707.768c-35.726,0.128-63.93-28.363-63.564-63.298
	c0.373-35.579,27.659-62.467,62.641-62.768c35.101-0.302,63.85,28.013,63.442,63.716
	C646.704,679.631,618.784,707.641,584.576,707.768z"/>
<path fill-rule="evenodd" clip-rule="evenodd" fill="#040404" d="M409.648,727.086c-24.053,0.463-40.785-12.21-53.676-30.944
	c-8.729-12.687-13.574-27.283-18.552-41.729c-1.047-3.04-1.905-6.165-2.579-9.309c-1.019-4.757-0.294-9.029,4.198-11.909
	c0.292-0.188,0.634-0.374,0.809-0.652c4.474-7.098,11.486-6.416,18.362-5.908c17.155,1.27,34.327,2.058,51.527,1.665
	c14.968-0.342,29.877-1.322,44.747-3.37c8.687-1.195,17.388-2.686,26.249-2.632c6.409,0.038,8.706,3.119,9.279,9.586
	c1.224,13.797-4.652,25.708-8.93,38.03c-4.342,12.505-11.353,23.549-20.281,33.339c-11.514,12.626-25.381,21.129-42.456,23.771
	C415.511,727.463,412.551,727.086,409.648,727.086z M409.232,707.224c12.331-0.065,21.703-4.425,30-11.433
	c15.738-13.293,23.442-31.134,28.723-50.427c0.902-3.298-0.249-3.055-2.412-2.35c-14.936,4.864-30.434,5.684-45.941,6.327
	c-18.233,0.758-36.454,0.273-54.668-0.771c-6.689-0.385-6.697-0.252-4.403,5.801c0.164,0.435,0.334,0.866,0.51,1.295
	c4.214,10.286,8.395,20.615,14.292,30.072C383.412,698.693,394.63,706.785,409.232,707.224z"/>
<path fill-rule="evenodd" clip-rule="evenodd" fill="#040404" d="M304.089,618.975c-6.691-3.126-11.923-7.832-15.44-14.359
	c-1.02-1.893-1.91-3.854-2.859-5.784c-3.533-11.833-3.592-23.579,1.584-34.946c4.279-9.398,10.645-16.814,21.288-19.256
	c11.091-2.544,19.401,2.116,26.025,10.56c12.95,16.509,10.05,45.004-5.901,58.573C321.509,619.95,313.211,621.457,304.089,618.975z"
	/>
<path fill-rule="evenodd" clip-rule="evenodd" fill="#040404" d="M546.415,571.266c-0.62,10.728-4.005,21.746-13.142,30.182
	c-10.907,10.073-26.616,9.938-36.829-2.341c-8.526-10.252-11.271-22.173-8.431-35.195c1.912-8.765,4.463-17.347,11.419-23.718
	c12.01-11.002,27.04-10.488,37.572,1.988C543.503,549.88,546.373,559.052,546.415,571.266z"/>
<path fill-rule="evenodd" clip-rule="evenodd" fill="#ECAE84" d="M405.204,610.257c-7.748-0.454-14.719-1.773-19.883-7.628
	c-4.07-4.614-4.021-9.76-0.62-14.956c3.552-5.426,8.546-8.295,14.709-9.445c8.114-1.514,15.727-0.219,23.101,3.617
	c6.921,3.6,8.225,15.045,2.996,20.43C419.586,608.372,412.482,609.609,405.204,610.257z"/>
<path fill-rule="evenodd" clip-rule="evenodd" fill="#050508" d="M518.682,504.216c-3.742-0.328-8.345,1.027-12.994,0.236
	c-4.195-0.713-6.877-3.186-7.28-6.779c-0.408-3.638,1.513-6.914,5.554-8.232c7.973-2.604,16.06-3.927,24.576-2.545
	c7.692,1.248,15.23,2.619,22.049,6.629c2.246,1.321,4.053,3.104,5.478,5.217c2.116,3.139,2.078,7.433,0.115,9.77
	c-1.93,2.298-5.437,2.744-9.284,1.182C537.317,505.804,528.437,504.018,518.682,504.216z"/>
<path fill-rule="evenodd" clip-rule="evenodd" fill="#B24C5B" d="M275.973,511.309c0.839,0.685,0.79,1.564,0.544,2.483
	C275.362,513.175,275.517,512.275,275.973,511.309z"/>
<path fill-rule="evenodd" clip-rule="evenodd" fill="#050508" d="M565.617,974.033c-4.267,0.268-8.981-0.178-13.479-1.945
	c-4.67-1.837-6.222-4.879-4.904-9.586c0.437-1.559,0.491-2.655-0.777-4.042c-2.14-2.342-3.06-5.473-3.815-8.494
	c-2.299-9.187-4.421-18.418-6.564-27.644c-0.197-0.846-0.625-1.45-1.131-2.093c-3.976-5.043-2.357-9.769,4.021-10.9
	c13.456-2.386,26.565-6.22,39.846-9.322c16.676-3.895,33.043-8.931,49.288-14.374c10.734-3.599,21.486-7.129,32.046-11.225
	c6.285-2.438,7.993-1.458,11.44,4.284c4.553,7.584,8.412,15.463,11.424,23.749c2.251,6.191,4.479,12.435,5.116,19.054
	c0.322,3.36-0.979,6.072-3.246,8.783c-11.992,14.335-29.152,19.987-45.36,27.019c-20.281,8.8-41.554,14.2-63.664,16.102
	C572.62,973.678,569.402,974.079,565.617,974.033z M565.858,958.766c0-0.047,0-0.095,0-0.143c1.974,0,3.97,0.189,5.919-0.029
	c17.493-1.965,34.632-5.489,51.229-11.514c16.912-6.14,33.138-13.652,48.333-23.335c1.228-0.783,1.813-1.332,1.307-2.963
	c-3.048-9.801-6.493-19.44-10.87-28.738c-0.697-1.48-1.472-1.858-2.975-1.221c-9.903,4.197-20.265,7.071-30.423,10.536
	c-17.599,6.002-35.521,10.768-53.607,14.979c-7.3,1.7-14.632,3.268-21.947,4.905c-1.924,0.431-2.671,1.156-1.57,3.324
	c1.139,2.242,1.774,4.771,2.416,7.229c1.865,7.148,4.136,14.196,5.323,21.52c0.292,1.797-1.642,4.085,0.028,5.104
	c1.458,0.89,3.827,0.289,5.792,0.344C565.161,958.774,565.51,958.766,565.858,958.766z"/>
<path fill-rule="evenodd" clip-rule="evenodd" fill="#050508" d="M703.506,988.733c0.183,19.407-15.355,35.583-34.458,35.29
	c-18.21-0.278-32.938-14.536-33.08-34.425c-0.141-19.571,14.403-35.187,34.011-35.367
	C688.557,954.061,703.345,969.141,703.506,988.733z M670.251,969.175c-10.339-0.752-19.785,8.503-19.622,20.267
	c0.161,11.729,7.696,19.595,18.406,20.02c10.311,0.407,19.33-9.138,19.856-19.313C689.517,978.069,680.047,968.47,670.251,969.175z"
	/>
<path fill-rule="evenodd" clip-rule="evenodd" fill="#050508" d="M580.719,1047.132c-6.504-0.306-15.046-2.65-21.574-9.382
	c-8.272-8.529-8.067-20.566,0.247-30.221c8.397-9.752,19.418-14.257,32.036-15.24c7.5-0.584,14.801,0.123,21.766,3.302
	c15.475,7.065,18.728,25.171,6.671,37.438C610.377,1042.683,598.975,1047.09,580.719,1047.132z M584.737,1032.714
	c9.592-0.598,18.574-2.835,25.136-10.532c4.691-5.503,3.344-10.521-3.308-13.398c-7.039-3.046-14.318-2.706-21.409-0.655
	c-6.021,1.741-11.678,4.466-15.451,9.963c-3.808,5.548-1.523,9.291,3.311,11.858
	C576.615,1031.861,580.557,1032.855,584.737,1032.714z"/>
<path fill-rule="evenodd" clip-rule="evenodd" fill="#050508" d="M725.949,413.772c-3.685-5.957-3.219-12.75-3.459-19.257
	c-0.877-23.705-6.084-46.189-17.609-67.074c-10.604-19.214-21.822-37.991-37.321-53.801c-5.124-5.228-10.986-9.621-16.452-14.463
	c-2.905-2.574-3.484-5.507-1.903-8.382c1.492-2.713,4.585-3.727,8.215-2.508c1.526,0.512,2.977,1.293,4.392,2.079
	c9.862,5.471,17.996,13.003,25.276,21.499c16.531,19.294,29.696,40.697,39.5,64.12c3.93,9.388,6.556,19.213,8.223,29.274
	c0.131,0.792,0.135,1.633,0.791,2.24c0.483,5.407,0.991,10.811,1.444,16.221c0.687,8.191,1.18,16.414,0.503,24.604
	c-0.38,4.594-2.861,8.622-8.9,7.779c0,0-0.16-0.008-0.162-0.007C727.945,414.989,726.866,414.468,725.949,413.772z"/>
<path fill-rule="evenodd" clip-rule="evenodd" fill="#050508" d="M734.006,469.211c0.026,4.765-3.58,8.443-8.228,8.391
	c-4.808-0.054-9.14-4.281-9.214-8.992c-0.074-4.662,3.579-8.323,8.294-8.314C729.882,460.308,733.979,464.3,734.006,469.211z"/>
<path fill-rule="evenodd" clip-rule="evenodd" fill="#050508" d="M737.747,441.433c0.062,4.426-3.688,8.182-8.184,8.195
	c-4.34,0.014-8.388-3.918-8.348-8.108c0.04-4.197,3.738-8.043,7.871-8.185C733.695,433.177,737.683,436.906,737.747,441.433z"/>
<path fill-rule="evenodd" clip-rule="evenodd" fill="#F8E06C" d="M728.647,416.103c6.039,0.842,8.521-3.186,8.9-7.779
	c0.677-8.19,0.184-16.414-0.503-24.604c-0.453-5.41-0.961-10.814-1.444-16.221c1.761,0.21,1.382,1.581,1.396,2.672
	c0.032,2.322,0.01,4.646-0.021,6.968c-0.03,2.334-0.132,4.63,1.988,6.349c0.692,0.561,0.852,1.61,0.831,2.583
	c-0.148,6.834,0.081,13.657,0.688,20.467c0.206,2.316-0.461,4.106-2.459,5.692c-1.655,1.314-1.351,4.57-4.149,5.004
	C732.06,417.517,729.814,419.074,728.647,416.103z"/>
<path fill-rule="evenodd" clip-rule="evenodd" fill="#F8E06C" d="M725.949,413.772c0.917,0.696,1.996,1.217,2.536,2.324
	C726.516,416.549,725.63,415.818,725.949,413.772z"/>
<path fill-rule="evenodd" clip-rule="evenodd" fill="#050508" d="M182.956,388.813c0.805-11.95,3.268-23.604,6.426-35.115
	c4.196-15.3,9.575-30.176,16.397-44.512c11.954-25.118,28.892-46.107,52.077-61.665c4.752-3.189,9.909-6.389,16.127-6.387
	c3.202,0.001,6.291,0.553,7.294,4.036c0.998,3.463-1.132,6.055-3.686,7.971c-6.948,5.213-13.976,10.306-20.172,16.443
	c-11.01,10.906-19.992,23.421-28.746,36.116c-8.791,12.75-14.798,26.933-20.801,41.088c-5.359,12.638-8.191,25.981-10.224,39.511
	c-0.436,2.901-0.117,5.796-0.218,8.691c-0.13,3.724-1.309,5.092-5.111,4.786C185.292,399.209,182.915,396.467,182.956,388.813z"/>
<path fill-rule="evenodd" clip-rule="evenodd" fill="#050508" d="M200.298,425.419c0.053,5.06-3.588,8.901-8.55,9.018
	c-5.145,0.121-9.15-3.672-9.214-8.724c-0.064-5.051,3.93-9.137,8.903-9.108C196.226,416.632,200.248,420.633,200.298,425.419z"/>
<path fill-rule="evenodd" clip-rule="evenodd" fill="#D1D1D1" d="M248.201,422.563c0.091,0.049,0.182,0.099,0.272,0.148
	c-0.086-0.054-0.173-0.107-0.26-0.161L248.201,422.563z"/>
<path fill-rule="evenodd" clip-rule="evenodd" fill="#D97B70" d="M409.232,707.224c-14.603-0.438-25.82-8.53-33.899-21.485
	c-5.897-9.457-10.078-19.786-14.292-30.072c-0.176-0.429-0.346-0.86-0.51-1.295c-2.294-6.053-2.287-6.186,4.403-5.801
	c18.214,1.045,36.436,1.529,54.668,0.771c15.507-0.644,31.006-1.463,45.941-6.327c2.164-0.705,3.314-0.948,2.412,2.35
	c-5.281,19.293-12.985,37.134-28.723,50.427C430.935,702.799,421.563,707.158,409.232,707.224z"/>
<path fill-rule="evenodd" clip-rule="evenodd" fill="#F8E06C" d="M565.858,958.766c-0.349,0-0.697,0.009-1.046-0.001
	c-1.966-0.055-4.334,0.546-5.792-0.344c-1.67-1.02,0.264-3.308-0.028-5.104c-1.187-7.323-3.458-14.371-5.323-21.52
	c-0.642-2.459-1.277-4.987-2.416-7.229c-1.101-2.168-0.354-2.894,1.57-3.324c7.315-1.638,14.647-3.205,21.947-4.905
	c18.086-4.211,36.009-8.977,53.607-14.979c10.158-3.465,20.52-6.339,30.423-10.536c1.503-0.638,2.277-0.26,2.975,1.221
	c4.377,9.298,7.822,18.938,10.87,28.738c0.507,1.631-0.079,2.18-1.307,2.963c-15.195,9.683-31.421,17.195-48.333,23.335
	c-16.597,6.024-33.735,9.549-51.229,11.514c-1.95,0.219-3.945,0.029-5.919,0.029C565.858,958.671,565.858,958.719,565.858,958.766z"
	/>
<path fill-rule="evenodd" clip-rule="evenodd" fill="#B24C5B" d="M670.251,969.175c9.796-0.705,19.266,8.895,18.641,20.974
	c-0.526,10.175-9.546,19.72-19.856,19.313c-10.71-0.425-18.245-8.291-18.406-20.02C650.466,977.678,659.913,968.423,670.251,969.175
	z"/>
<path fill-rule="evenodd" clip-rule="evenodd" fill="#C0D16F" d="M584.737,1032.714c-4.18,0.142-8.122-0.853-11.721-2.765
	c-4.834-2.567-7.119-6.311-3.311-11.858c3.773-5.497,9.431-8.222,15.451-9.963c7.091-2.051,14.37-2.391,21.409,0.655
	c6.651,2.878,7.999,7.896,3.308,13.398C603.311,1029.879,594.329,1032.116,584.737,1032.714z"/>
</svg>
